<?xml version="1.0" encoding="utf-8"?>
<!-- Generator: Adobe Illustrator 18.1.0, SVG Export Plug-In . SVG Version: 6.00 Build 0)  -->
<!DOCTYPE svg PUBLIC "-//W3C//DTD SVG 1.1//EN" "http://www.w3.org/Graphics/SVG/1.1/DTD/svg11.dtd">
<svg version="1.1" id="Layer_1" xmlns="http://www.w3.org/2000/svg" xmlns:xlink="http://www.w3.org/1999/xlink" x="0px" y="0px"
	 viewBox="0 151.4 960 257.2" enable-background="new 0 151.4 960 257.2" xml:space="preserve">
<g>
	<g>
		<path fill="#FFFFFF" d="M895.2,194.3c3.2,21.4,20.2,38.4,41.6,41.6v86.3c-21.4,3.2-38.4,20.2-41.6,41.6H64.6
			c-3.2-21.5-20.2-38.4-41.6-41.7V236c21.4-3.2,38.4-20.2,41.6-41.6L895.2,194.3 M902.2,186.7H57.6c0,23.3-18.9,42.3-42.3,42.3
			v100.3c23.4,0,42.3,18.9,42.3,42.3h844.6c0-23.3,18.9-42.3,42.3-42.3V229C921.2,229,902.2,210.1,902.2,186.7L902.2,186.7z"/>
	</g>
	<g>
		<g>
			<path fill="#FFFFFF" d="M58.9,159c-1,0-2-0.4-2.7-1.1c-0.7-0.7-1.1-1.7-1.1-2.7s0.4-2,1.1-2.7c1.5-1.4,4-1.5,5.3,0
				c0.7,0.8,1.1,1.9,1.1,2.8c0,1-0.4,2-1,2.7C60.8,158.6,59.9,159,58.9,159z"/>
		</g>
		<g>
			<path fill="#FFFFFF" d="M863.9,155.2c0-2.1,1.7-3.8,3.8-3.8l0,0c2.1,0,3.8,1.7,3.8,3.8l0,0c0,2.1-1.7,3.8-3.8,3.8l0,0
				C865.6,159,863.9,157.4,863.9,155.2z M833.9,155.2c0-2.1,1.7-3.8,3.8-3.8l0,0c2.1,0,3.8,1.7,3.8,3.8l0,0c0,2.1-1.7,3.8-3.8,3.8
				l0,0C835.6,159,833.9,157.4,833.9,155.2z M804,155.2c0-2.1,1.7-3.8,3.8-3.8l0,0c2.1,0,3.8,1.7,3.8,3.8l0,0c0,2.1-1.7,3.8-3.8,3.8
				l0,0C805.7,159,804,157.4,804,155.2z M774.1,155.2c0-2.1,1.7-3.8,3.8-3.8l0,0c2.1,0,3.8,1.7,3.8,3.8l0,0c0,2.1-1.7,3.8-3.8,3.8
				l0,0C775.7,159,774.1,157.4,774.1,155.2z M744.1,155.2c0-2.1,1.7-3.8,3.8-3.8l0,0c2.1,0,3.8,1.7,3.8,3.8l0,0
				c0,2.1-1.7,3.8-3.8,3.8l0,0C745.8,159,744.1,157.4,744.1,155.2z M714.2,155.2c0-2.1,1.7-3.8,3.8-3.8l0,0c2.1,0,3.8,1.7,3.8,3.8
				l0,0c0,2.1-1.7,3.8-3.8,3.8l0,0C715.8,159,714.2,157.4,714.2,155.2z M684.2,155.2c0-2.1,1.7-3.8,3.8-3.8l0,0
				c2.1,0,3.8,1.7,3.8,3.8l0,0c0,2.1-1.7,3.8-3.8,3.8l0,0C685.9,159,684.2,157.4,684.2,155.2z M654.3,155.2c0-2.1,1.7-3.8,3.8-3.8
				l0,0c2.1,0,3.9,1.7,3.9,3.8l0,0c0,2.1-1.7,3.8-3.9,3.8l0,0C655.9,159,654.3,157.4,654.3,155.2z M624.2,155.2
				c0-2.1,1.7-3.8,3.8-3.8l0,0c2.1,0,3.8,1.7,3.8,3.8l0,0c0,2.1-1.7,3.8-3.8,3.8l0,0C626,159,624.2,157.4,624.2,155.2z M594.3,155.2
				c0-2.1,1.7-3.8,3.8-3.8l0,0c2.1,0,3.8,1.7,3.8,3.8l0,0c0,2.1-1.7,3.8-3.8,3.8l0,0C595.9,159,594.3,157.4,594.3,155.2z
				 M564.3,155.2c0-2.1,1.7-3.8,3.8-3.8l0,0c2.1,0,3.8,1.7,3.8,3.8l0,0c0,2.1-1.7,3.8-3.8,3.8l0,0C566,159,564.3,157.4,564.3,155.2z
				 M534.4,155.2c0-2.1,1.7-3.8,3.8-3.8l0,0c2.1,0,3.8,1.7,3.8,3.8l0,0c0,2.1-1.7,3.8-3.8,3.8l0,0C536,159,534.4,157.4,534.4,155.2z
				 M504.4,155.2c0-2.1,1.7-3.8,3.8-3.8l0,0c2.1,0,3.8,1.7,3.8,3.8l0,0c0,2.1-1.7,3.8-3.8,3.8l0,0
				C506.1,159,504.4,157.4,504.4,155.2z M474.5,155.2c0-2.1,1.7-3.8,3.8-3.8l0,0c2.1,0,3.8,1.7,3.8,3.8l0,0c0,2.1-1.7,3.8-3.8,3.8
				l0,0C476.1,159,474.5,157.4,474.5,155.2z M444.5,155.2c0-2.1,1.7-3.8,3.8-3.8l0,0c2.1,0,3.8,1.7,3.8,3.8l0,0
				c0,2.1-1.7,3.8-3.8,3.8l0,0C446.2,159,444.5,157.4,444.5,155.2z M414.6,155.2c0-2.1,1.7-3.8,3.8-3.8l0,0c2.1,0,3.8,1.7,3.8,3.8
				l0,0c0,2.1-1.7,3.8-3.8,3.8l0,0C416.2,159,414.6,157.4,414.6,155.2z M384.6,155.2c0-2.1,1.7-3.8,3.8-3.8l0,0
				c2.1,0,3.8,1.7,3.8,3.8l0,0c0,2.1-1.7,3.8-3.8,3.8l0,0C386.3,159,384.6,157.4,384.6,155.2z M354.7,155.2c0-2.1,1.7-3.8,3.8-3.8
				l0,0c2.1,0,3.8,1.7,3.8,3.8l0,0c0,2.1-1.7,3.8-3.8,3.8l0,0C356.3,159,354.7,157.4,354.7,155.2z M324.7,155.2
				c0-2.1,1.7-3.8,3.8-3.8l0,0c2.1,0,3.8,1.7,3.8,3.8l0,0c0,2.1-1.7,3.8-3.8,3.8l0,0C326.4,159,324.7,157.4,324.7,155.2z
				 M294.8,155.2c0-2.1,1.7-3.8,3.8-3.8l0,0c2.1,0,3.8,1.7,3.8,3.8l0,0c0,2.1-1.7,3.8-3.8,3.8l0,0
				C296.3,159,294.8,157.4,294.8,155.2z M264.8,155.2c0-2.1,1.7-3.8,3.8-3.8l0,0c2.1,0,3.8,1.7,3.8,3.8l0,0c0,2.1-1.7,3.8-3.8,3.8
				l0,0C266.5,159,264.8,157.4,264.8,155.2z M234.8,155.2c0-2.1,1.7-3.8,3.8-3.8l0,0c2.1,0,3.8,1.7,3.8,3.8l0,0
				c0,2.1-1.7,3.8-3.8,3.8l0,0C236.5,159,234.8,157.4,234.8,155.2z M204.8,155.2c0-2.1,1.7-3.8,3.8-3.8l0,0c2.1,0,3.8,1.7,3.8,3.8
				l0,0c0,2.1-1.7,3.8-3.8,3.8l0,0C206.6,159,204.8,157.4,204.8,155.2z M174.9,155.2c0-2.1,1.7-3.8,3.8-3.8l0,0
				c2.1,0,3.8,1.7,3.8,3.8l0,0c0,2.1-1.7,3.8-3.8,3.8l0,0C176.7,159,174.9,157.4,174.9,155.2z M144.9,155.2c0-2.1,1.7-3.8,3.8-3.8
				l0,0c2.1,0,3.8,1.7,3.8,3.8l0,0c0,2.1-1.7,3.8-3.8,3.8l0,0C146.6,159,144.9,157.4,144.9,155.2z M115,155.2c0-2.1,1.7-3.8,3.8-3.8
				l0,0c2.1,0,3.8,1.7,3.8,3.8l0,0c0,2.1-1.7,3.8-3.8,3.8l0,0C116.7,159,115,157.4,115,155.2z M85,155.2c0-2.1,1.7-3.8,3.8-3.8l0,0
				c2.1,0,3.8,1.7,3.8,3.8l0,0c0,2.1-1.7,3.8-3.8,3.8l0,0C86.7,159,85,157.4,85,155.2z"/>
		</g>
		<g>
			<path fill="#FFFFFF" d="M897.7,159c-1,0-2-0.4-2.7-1.1c-0.7-0.6-1.1-1.7-1.1-2.7s0.4-2,1.1-2.7c1.5-1.4,4-1.4,5.3,0
				c0.7,0.7,1.1,1.7,1.1,2.7s-0.4,2-1.1,2.7C899.6,158.6,898.6,159,897.7,159z"/>
		</g>
	</g>
	<g>
		<g>
			<path fill="#FFFFFF" d="M58.9,408.6c-1,0-1.9-0.3-2.7-1c-0.7-0.7-1.1-1.7-1.1-2.7c0-0.9,0.4-1.9,1.1-2.7c1.5-1.4,4-1.4,5.3,0
				c0.7,0.7,1.1,1.7,1.1,2.7s-0.4,2-1.1,2.7C60.8,408.1,59.9,408.6,58.9,408.6z"/>
		</g>
		<g>
			<path fill="#FFFFFF" d="M863.9,404.8c0-2.1,1.7-3.8,3.8-3.8l0,0c2.1,0,3.8,1.7,3.8,3.8l0,0c0,2.1-1.7,3.8-3.8,3.8l0,0
				C865.6,408.6,863.9,406.9,863.9,404.8z M833.9,404.8c0-2.1,1.7-3.8,3.8-3.8l0,0c2.1,0,3.8,1.7,3.8,3.8l0,0c0,2.1-1.7,3.8-3.8,3.8
				l0,0C835.6,408.6,833.9,406.9,833.9,404.8z M804,404.8c0-2.1,1.7-3.8,3.8-3.8l0,0c2.1,0,3.8,1.7,3.8,3.8l0,0
				c0,2.1-1.7,3.8-3.8,3.8l0,0C805.7,408.6,804,406.9,804,404.8z M774.1,404.8c0-2.1,1.7-3.8,3.8-3.8l0,0c2.1,0,3.8,1.7,3.8,3.8l0,0
				c0,2.1-1.7,3.8-3.8,3.8l0,0C775.7,408.6,774.1,406.9,774.1,404.8z M744.1,404.8c0-2.1,1.7-3.8,3.8-3.8l0,0c2.1,0,3.8,1.7,3.8,3.8
				l0,0c0,2.1-1.7,3.8-3.8,3.8l0,0C745.8,408.6,744.1,406.9,744.1,404.8z M714.2,404.8c0-2.1,1.7-3.8,3.8-3.8l0,0
				c2.1,0,3.8,1.7,3.8,3.8l0,0c0,2.1-1.7,3.8-3.8,3.8l0,0C715.8,408.6,714.2,406.9,714.2,404.8z M684.2,404.8c0-2.1,1.7-3.8,3.8-3.8
				l0,0c2.1,0,3.8,1.7,3.8,3.8l0,0c0,2.1-1.7,3.8-3.8,3.8l0,0C685.9,408.6,684.2,406.9,684.2,404.8z M654.3,404.8
				c0-2.1,1.7-3.8,3.8-3.8l0,0c2.1,0,3.9,1.7,3.9,3.8l0,0c0,2.1-1.7,3.8-3.9,3.8l0,0C655.9,408.6,654.3,406.9,654.3,404.8z
				 M624.2,404.8c0-2.1,1.7-3.8,3.8-3.8l0,0c2.1,0,3.8,1.7,3.8,3.8l0,0c0,2.1-1.7,3.8-3.8,3.8l0,0
				C626,408.6,624.2,406.9,624.2,404.8z M594.3,404.8c0-2.1,1.7-3.8,3.8-3.8l0,0c2.1,0,3.8,1.7,3.8,3.8l0,0c0,2.1-1.7,3.8-3.8,3.8
				l0,0C595.9,408.6,594.3,406.9,594.3,404.8z M564.3,404.8c0-2.1,1.7-3.8,3.8-3.8l0,0c2.1,0,3.8,1.7,3.8,3.8l0,0
				c0,2.1-1.7,3.8-3.8,3.8l0,0C566,408.6,564.3,406.9,564.3,404.8z M534.4,404.8c0-2.1,1.7-3.8,3.8-3.8l0,0c2.1,0,3.8,1.7,3.8,3.8
				l0,0c0,2.1-1.7,3.8-3.8,3.8l0,0C536,408.6,534.4,406.9,534.4,404.8z M504.4,404.8c0-2.1,1.7-3.8,3.8-3.8l0,0
				c2.1,0,3.8,1.7,3.8,3.8l0,0c0,2.1-1.7,3.8-3.8,3.8l0,0C506.1,408.6,504.4,406.9,504.4,404.8z M474.5,404.8c0-2.1,1.7-3.8,3.8-3.8
				l0,0c2.1,0,3.8,1.7,3.8,3.8l0,0c0,2.1-1.7,3.8-3.8,3.8l0,0C476.1,408.6,474.5,406.9,474.5,404.8z M444.5,404.8
				c0-2.1,1.7-3.8,3.8-3.8l0,0c2.1,0,3.8,1.7,3.8,3.8l0,0c0,2.1-1.7,3.8-3.8,3.8l0,0C446.2,408.6,444.5,406.9,444.5,404.8z
				 M414.6,404.8c0-2.1,1.7-3.8,3.8-3.8l0,0c2.1,0,3.8,1.7,3.8,3.8l0,0c0,2.1-1.7,3.8-3.8,3.8l0,0
				C416.2,408.6,414.6,406.9,414.6,404.8z M384.6,404.8c0-2.1,1.7-3.8,3.8-3.8l0,0c2.1,0,3.8,1.7,3.8,3.8l0,0c0,2.1-1.7,3.8-3.8,3.8
				l0,0C386.3,408.6,384.6,406.9,384.6,404.8z M354.7,404.8c0-2.1,1.7-3.8,3.8-3.8l0,0c2.1,0,3.8,1.7,3.8,3.8l0,0
				c0,2.1-1.7,3.8-3.8,3.8l0,0C356.3,408.6,354.7,406.9,354.7,404.8z M324.7,404.8c0-2.1,1.7-3.8,3.8-3.8l0,0c2.1,0,3.8,1.7,3.8,3.8
				l0,0c0,2.1-1.7,3.8-3.8,3.8l0,0C326.4,408.6,324.7,406.9,324.7,404.8z M294.8,404.8c0-2.1,1.7-3.8,3.8-3.8l0,0
				c2.1,0,3.8,1.7,3.8,3.8l0,0c0,2.1-1.7,3.8-3.8,3.8l0,0C296.3,408.6,294.8,406.9,294.8,404.8z M264.8,404.8c0-2.1,1.7-3.8,3.8-3.8
				l0,0c2.1,0,3.8,1.7,3.8,3.8l0,0c0,2.1-1.7,3.8-3.8,3.8l0,0C266.5,408.6,264.8,406.9,264.8,404.8z M234.8,404.8
				c0-2.1,1.7-3.8,3.8-3.8l0,0c2.1,0,3.8,1.7,3.8,3.8l0,0c0,2.1-1.7,3.8-3.8,3.8l0,0C236.5,408.6,234.8,406.9,234.8,404.8z
				 M204.8,404.8c0-2.1,1.7-3.8,3.8-3.8l0,0c2.1,0,3.8,1.7,3.8,3.8l0,0c0,2.1-1.7,3.8-3.8,3.8l0,0
				C206.6,408.6,204.8,406.9,204.8,404.8z M174.9,404.8c0-2.1,1.7-3.8,3.8-3.8l0,0c2.1,0,3.8,1.7,3.8,3.8l0,0c0,2.1-1.7,3.8-3.8,3.8
				l0,0C176.7,408.6,174.9,406.9,174.9,404.8z M144.9,404.8c0-2.1,1.7-3.8,3.8-3.8l0,0c2.1,0,3.8,1.7,3.8,3.8l0,0
				c0,2.1-1.7,3.8-3.8,3.8l0,0C146.6,408.6,144.9,406.9,144.9,404.8z M115,404.8c0-2.1,1.7-3.8,3.8-3.8l0,0c2.1,0,3.8,1.7,3.8,3.8
				l0,0c0,2.1-1.7,3.8-3.8,3.8l0,0C116.7,408.6,115,406.9,115,404.8z M85,404.8c0-2.1,1.7-3.8,3.8-3.8l0,0c2.1,0,3.8,1.7,3.8,3.8
				l0,0c0,2.1-1.7,3.8-3.8,3.8l0,0C86.7,408.6,85,406.9,85,404.8z"/>
		</g>
		<g>
			<path fill="#FFFFFF" d="M897.7,408.6c-0.9,0-1.9-0.4-2.7-1c-0.7-0.7-1.1-1.7-1.1-2.7s0.4-2,1.1-2.7c1.5-1.4,4-1.4,5.3,0
				c0.7,0.7,1.1,1.7,1.1,2.7s-0.4,2-1.1,2.7C899.6,408.1,898.6,408.6,897.7,408.6z"/>
		</g>
	</g>
	<g>
		<circle fill="#FFFFFF" cx="15.5" cy="186.7" r="15.5"/>
	</g>
	<g>
		<circle fill="#FFFFFF" cx="944.5" cy="186.7" r="15.5"/>
	</g>
	<g>
		<path fill="#FFFFFF" d="M31.1,370.8c0,8.6-7,15.5-15.5,15.5S0,379.3,0,370.8s7-15.5,15.5-15.5S31.1,362.1,31.1,370.8z"/>
	</g>
	<g>
		<path fill="#FFFFFF" d="M960,370.8c0,8.6-7,15.5-15.5,15.5s-15.5-7-15.5-15.5s7-15.5,15.5-15.5S960,362.1,960,370.8z"/>
	</g>
</g>
</svg>
