<?xml version="1.0" encoding="utf-8"?>
<!-- Generator: Adobe Illustrator 18.1.0, SVG Export Plug-In . SVG Version: 6.00 Build 0)  -->
<!DOCTYPE svg PUBLIC "-//W3C//DTD SVG 1.1//EN" "http://www.w3.org/Graphics/SVG/1.1/DTD/svg11.dtd">
<svg version="1.1" id="Layer_1" xmlns="http://www.w3.org/2000/svg" xmlns:xlink="http://www.w3.org/1999/xlink" x="0px" y="0px"
	 viewBox="36.1 715.4 960 84.2" enable-background="new 36.1 715.4 960 84.2" xml:space="preserve">
<g>
	<g>
		<path fill="#FFFFFF" d="M877.1,715.4H152.4l41.4,42.1l-41.4,42.1h724.7l-41.4-42.1L877.1,715.4z M853.1,789.5H176.4l24.4-24.8
			l7-7.1l-7-7.1l-24.4-24.8h676.8l-24.4,24.8l-7,7.1l7,7.1L853.1,789.5z M51.4,741.9c-8.4,0-15.3,7-15.3,15.6
			c0,8.6,6.8,15.6,15.3,15.6c8.4,0,15.3-7,15.3-15.6C66.8,748.9,60,741.9,51.4,741.9z M98.2,741.9c-8.4,0-15.3,7-15.3,15.6
			c0,8.6,6.8,15.6,15.3,15.6c8.4,0,15.3-7,15.3-15.6C113.4,748.9,106.6,741.9,98.2,741.9z M160.2,757.5c0-8.6-6.8-15.6-15.3-15.6
			c-8.4,0-15.3,7-15.3,15.6s6.8,15.6,15.3,15.6C153.3,773.1,160.2,766,160.2,757.5z M887.4,741.9c-8.4,0-15.3,7-15.3,15.6
			c0,8.6,6.8,15.6,15.3,15.6c8.4,0,15.3-7,15.3-15.6C902.7,748.9,895.9,741.9,887.4,741.9z M934.1,741.9c-8.4,0-15.3,7-15.3,15.6
			c0,8.6,6.8,15.6,15.3,15.6c8.4,0,15.3-7,15.3-15.6C949.3,748.9,942.5,741.9,934.1,741.9z M980.8,741.9c-8.4,0-15.3,7-15.3,15.6
			c0,8.6,6.8,15.6,15.3,15.6c8.5,0,15.3-7,15.3-15.6C996.1,748.9,989.2,741.9,980.8,741.9z"/>
	</g>
</g>
</svg>
