<?xml version="1.0" encoding="utf-8"?>
<!-- Generator: Adobe Illustrator 18.0.0, SVG Export Plug-In . SVG Version: 6.00 Build 0)  -->
<!DOCTYPE svg PUBLIC "-//W3C//DTD SVG 1.1//EN" "http://www.w3.org/Graphics/SVG/1.1/DTD/svg11.dtd">
<svg version="1.1" id="Layer_1" xmlns="http://www.w3.org/2000/svg" xmlns:xlink="http://www.w3.org/1999/xlink" x="0px" y="0px"
	 viewBox="0 0 841.9 595.3" enable-background="new 0 0 841.9 595.3" xml:space="preserve">
<rect fill="#967856" width="841.9" height="595.3"/>
<g>
	<path fill="#EC694A" d="M306.8,309.3h22.6c0-11-0.3-84-2.8-99.5h-17C307.1,225.3,306.8,297.7,306.8,309.3z"/>
	<path fill="#F6A500" d="M347.9,309.3h22.6c0-11-0.3-84-2.8-99.5h-17C348.2,225.3,347.9,297.7,347.9,309.3z"/>
	<path fill="#E7D200" d="M389.1,309.3h22.6c0-11-0.3-84-2.8-99.5h-17C389.4,225.3,389.1,297.7,389.1,309.3z"/>
	<path fill="#A9C811" d="M430.2,309.3h22.6c0-11-0.3-84-2.8-99.5h-17C430.5,225.3,430.2,297.7,430.2,309.3z"/>
	<path fill="#04BAEE" d="M471.4,309.3H494c0-11-0.3-84-2.8-99.5h-17C471.7,225.3,471.4,297.7,471.4,309.3z"/>
	<path fill="#A689BE" d="M512.6,309.3h22.6c0-11-0.3-84-2.8-99.5h-17C512.9,225.3,512.6,297.7,512.6,309.3z"/>
	<g>
		<path fill="#FFFFFF" d="M562.2,335.1v-8.2h-7v-8.2h-17.4c1.8,0,3.3-1.5,3.3-3.3c0-1.8-1.5-3.3-3.3-3.3h-0.2c0.3-0.4,0.5-1,0.5-1.6
			c0-1.5-1.2-2.7-2.7-2.7h-23.1c-1.5,0-2.7,1.2-2.7,2.7c0,0.6,0.2,1.1,0.5,1.6h-0.2c-1.8,0-3.3,1.5-3.3,3.3c0,1.8,1.5,3.3,3.3,3.3
			h-13.2c1.8,0,3.3-1.5,3.3-3.3c0-1.8-1.5-3.3-3.3-3.3h-0.2c0.3-0.4,0.5-1,0.5-1.6c0-1.5-1.2-2.7-2.7-2.7h-23.1
			c-1.5,0-2.7,1.2-2.7,2.7c0,0.6,0.2,1.1,0.5,1.6h-0.2c-1.8,0-3.3,1.5-3.3,3.3c0,1.8,1.5,3.3,3.3,3.3h-13.2c1.8,0,3.3-1.5,3.3-3.3
			c0-1.8-1.5-3.3-3.3-3.3h-0.2c0.3-0.4,0.5-1,0.5-1.6c0-1.5-1.2-2.7-2.7-2.7H430c-1.5,0-2.7,1.2-2.7,2.7c0,0.6,0.2,1.1,0.5,1.6h-0.2
			c-1.8,0-3.3,1.5-3.3,3.3c0,1.8,1.5,3.3,3.3,3.3h-13.2c1.8,0,3.3-1.5,3.3-3.3c0-1.8-1.5-3.3-3.3-3.3h-0.2c0.3-0.4,0.5-1,0.5-1.6
			c0-1.5-1.2-2.7-2.7-2.7h-23.1c-1.5,0-2.7,1.2-2.7,2.7c0,0.6,0.2,1.1,0.5,1.6h-0.2c-1.8,0-3.3,1.5-3.3,3.3c0,1.8,1.5,3.3,3.3,3.3
			h-13.2c1.8,0,3.3-1.5,3.3-3.3c0-1.8-1.5-3.3-3.3-3.3H373c0.3-0.4,0.5-1,0.5-1.6c0-1.5-1.2-2.7-2.7-2.7h-23.1
			c-1.5,0-2.7,1.2-2.7,2.7c0,0.6,0.2,1.1,0.5,1.6h-0.2c-1.8,0-3.3,1.5-3.3,3.3c0,1.8,1.5,3.3,3.3,3.3H332c1.8,0,3.3-1.5,3.3-3.3
			c0-1.8-1.5-3.3-3.3-3.3h-0.2c0.3-0.4,0.5-1,0.5-1.6c0-1.5-1.2-2.7-2.7-2.7h-23.1c-1.5,0-2.7,1.2-2.7,2.7c0,0.6,0.2,1.1,0.5,1.6
			h-0.2c-1.8,0-3.3,1.5-3.3,3.3c0,1.8,1.5,3.3,3.3,3.3h-17.4v8.2h-7v8.2h-6.4v8.2h295.3v-8.2H562.2z"/>
		<g>
			<path fill="#FFFFFF" d="M524.9,446.7c-2.5,0-3.3,2.1-3.3,4.6c0,2.5,0.8,4.6,3.3,4.6c2.6,0,3.4-2,3.4-4.6
				C528.3,448.8,527.5,446.7,524.9,446.7z"/>
			<path fill="#FFFFFF" d="M348.4,446.8c-2.5,0-4.4,1.9-4.4,4.5c0,2.5,1.8,4.5,4.4,4.5c2.6,0,4.4-2,4.4-4.5
				C352.8,448.7,351,446.8,348.4,446.8z"/>
			<path fill="#FFFFFF" d="M369.7,448.9c0-1.4-1-2.1-2.3-2.1h-3.6v4.2h3.6C368.7,451,369.7,450.2,369.7,448.9z"/>
			<path fill="#FFFFFF" d="M273.3,435.8v29.3h295.3v-29.3H273.3z M296.3,458.4h-2.9v-5.8h-7.6v5.8h-2.9v-14.1h2.9v5.7h7.6v-5.7h2.9
				V458.4z M305.3,458.4h-2.9v-14.1h2.9V458.4z M315.8,458.6c-2.1,0-4.1-0.7-5-1.2l0.7-2.8c1,0.7,2.7,1.3,4.4,1.3s2.7-0.6,2.7-1.6
				c0-0.8-0.7-1.1-2-1.5l-2.7-0.7c-2.1-0.6-3.2-1.9-3.2-3.8c0-2.3,1.8-4.3,5.6-4.3c2,0,4,0.5,5.1,1.1l-0.8,2.7
				c-1-0.7-2.8-1.2-4.3-1.2c-1.8,0-2.5,0.6-2.5,1.4c0,0.8,0.5,1.1,1.5,1.4l2.6,0.7c2.6,0.7,3.8,1.9,3.8,3.9
				C321.6,456.8,319.2,458.6,315.8,458.6z M337.6,447.2h-4.5v11.2h-2.9v-11.2h-4.6v-2.9h12V447.2z M348.4,458.6
				c-4.1,0-7.2-3.1-7.2-7.2c0-4.2,3.1-7.3,7.2-7.3c4.2,0,7.3,3.1,7.3,7.3C355.6,455.5,352.5,458.6,348.4,458.6z M372.4,458.6
				c-3.2,0-5.5-4-7.2-5.3h-1.4v5.1h-2.9v-14.1h6.2c2.8,0,5.6,1.1,5.6,4.6c0,2.3-1.7,4-4,4.4c1.3,1.3,2.7,2.8,4.2,2.8
				c0.5,0,1.1-0.1,1.6-0.3l0.3,2.3C374.2,458.3,373.3,458.6,372.4,458.6z M390.2,444.5l-5.5,8.3v5.6h-2.9v-5.6l-5.5-8.3v-0.2h3.2
				l3.7,5.8l3.7-5.8h3.2V444.5z M417.5,458.4h-2.9v-9.5l-4.7,5.7h-0.5l-4.7-5.7v9.5h-2.9v-14.1h2.6l5.3,6.3l5.3-6.3h2.6V458.4z
				 M430,458.6c-4.1,0-7.2-3.1-7.2-7.2c0-4.2,3.1-7.3,7.2-7.3c4.2,0,7.3,3.1,7.3,7.3C437.3,455.5,434.1,458.6,430,458.6z
				 M455.8,458.4h-2.5l-7.9-9.5v9.5h-2.9v-14.1h2.5l7.9,9.5v-9.5h2.9V458.4z M472.4,447.2h-4.5v11.2H465v-11.2h-4.6v-2.9h12V447.2z
				 M490.3,458.4h-2.9v-5.8h-7.6v5.8H477v-14.1h2.9v5.7h7.6v-5.7h2.9V458.4z M514.2,458.4h-10.9v-2.2l5.5-4.1c1.5-1.1,2-2,2-3.2
				c0-1.2-0.8-2.2-2.4-2.2c-1.9,0-2.9,1.2-2.9,2.9l-2.7-0.5c0.1-3,2.1-5,5.6-5c3.6,0,5.3,2.2,5.3,4.6c0,1.8-0.5,3.2-2.8,4.9
				l-3.2,2.3h6.3V458.4z M524.9,458.6c-4.1,0-6.2-2.9-6.2-7.2c0-4.4,2-7.3,6.2-7.3c4.2,0,6.2,2.9,6.2,7.3
				C531.1,455.7,529.1,458.6,524.9,458.6z M543.1,458.4h-2.9v-10.8l-4.2,2.2l-1.1-2.2l6.1-3.3h2.1V458.4z M553.1,458.6
				c-2.4,0-4.1-0.6-4.9-0.9l0.7-2.4c0.7,0.3,2.2,0.9,4,0.9c1.8,0,3.3-0.7,3.3-2.3c0-1.4-1.2-1.9-3.1-1.9h-4l-0.1-0.1l0.6-7.5h9.1
				v2.5h-6.7l-0.2,2.9h1.5c3.6,0,5.9,1.2,5.9,4C559.2,457.1,556.7,458.6,553.1,458.6z"/>
			<path fill="#FFFFFF" d="M430,446.8c-2.5,0-4.4,1.9-4.4,4.5c0,2.5,1.8,4.5,4.4,4.5c2.6,0,4.4-2,4.4-4.5
				C434.4,448.7,432.6,446.8,430,446.8z"/>
		</g>
		<path fill="#FFFFFF" d="M421.3,130.1L287,190.5h4.9v11.5h4.9v3.9h9.9c-2.4,0-4.4,2-4.4,4.4c0,2.4,2,4.4,4.4,4.4
			c2.4,0,4.4-2,4.4-4.4h14.1c0,2.4,2,4.4,4.4,4.4c2.4,0,4.4-2,4.4-4.4c0-2.4-2-4.4-4.4-4.4h18.3c-2.4,0-4.4,2-4.4,4.4
			c0,2.4,2,4.4,4.4,4.4s4.4-2,4.4-4.4h14.1c0,2.4,2,4.4,4.4,4.4c2.4,0,4.4-2,4.4-4.4c0-2.4-2-4.4-4.4-4.4h18.3c-2.4,0-4.4,2-4.4,4.4
			c0,2.4,2,4.4,4.4,4.4s4.4-2,4.4-4.4h14.1c0,2.4,2,4.4,4.4,4.4s4.4-2,4.4-4.4c0-2.4-2-4.4-4.4-4.4h18.3c-2.4,0-4.4,2-4.4,4.4
			c0,2.4,2,4.4,4.4,4.4c2.4,0,4.4-2,4.4-4.4h14.1c0,2.4,2,4.4,4.4,4.4s4.4-2,4.4-4.4c0-2.4-2-4.4-4.4-4.4h18.3c-2.4,0-4.4,2-4.4,4.4
			c0,2.4,2,4.4,4.4,4.4s4.4-2,4.4-4.4h14.1c0,2.4,2,4.4,4.4,4.4c2.4,0,4.4-2,4.4-4.4c0-2.4-2-4.4-4.4-4.4h18.3c-2.4,0-4.4,2-4.4,4.4
			c0,2.4,2,4.4,4.4,4.4c2.4,0,4.4-2,4.4-4.4h14.1c0,2.4,2,4.4,4.4,4.4c2.4,0,4.4-2,4.4-4.4c0-2.4-2-4.4-4.4-4.4h9.9v-3.9h4.9v-11.5
			h5.5L421.3,130.1z"/>
		<path fill="#FFFFFF" d="M289.8,427.3v-73.8h23.9v53.1h33.8v20.6H289.8z"/>
		<path fill="#FFFFFF" d="M420.5,383.7v34c-6.8,5.6-21,10.7-32.3,10.7c-21.8,0-39.3-14.1-39.3-37.9c0-24,17.5-38.1,39.3-38.1
			c11.9,0,22.1,4,29.5,9.5l-10.7,18c-5-3.7-11.2-5.6-18.2-5.6c-8.8,0-15.2,5.7-15.2,16.2c0,10.2,6.4,15.9,16.3,15.9
			c2.7,0,6.3-0.7,9.8-1.7v-5.6H385v-15.4H420.5z"/>
		<path fill="#FFFFFF" d="M426,353.5h36c17.2,0,26.9,6.4,26.9,20.3c0,6.8-3.4,11.9-9.2,15c9.5,2.5,15.1,8.2,15.1,18.1
			c0,12.7-10.1,20.4-27.8,20.4h-41V353.5z M458.5,381.3c4.1,0,6-2.2,6-5.2c0-2.9-1.8-5.3-6-5.3h-8.7v10.5H458.5z M463.3,409.8
			c4.2,0,6.2-2.4,6.2-5.5c0-3-2-5.5-6.2-5.5h-13.4v11.1H463.3z"/>
		<path fill="#FFFFFF" d="M536.7,377.4v49.9h-23.9v-49.9h-19.5v-23.9h62.9v23.9H536.7z"/>
	</g>
</g>
</svg>
