<?xml version="1.0" encoding="utf-8"?>
<!-- Generator: Adobe Illustrator 18.1.0, SVG Export Plug-In . SVG Version: 6.00 Build 0)  -->
<!DOCTYPE svg PUBLIC "-//W3C//DTD SVG 1.1//EN" "http://www.w3.org/Graphics/SVG/1.1/DTD/svg11.dtd">
<svg version="1.1" id="Layer_1" xmlns="http://www.w3.org/2000/svg" xmlns:xlink="http://www.w3.org/1999/xlink" x="0px" y="0px"
	 viewBox="1000 427.1 132.1 132" enable-background="new 1000 427.1 132.1 132" xml:space="preserve">
<path fill="#FFFFFF" d="M1132.1,493.2c0-9.3-5.2-17.6-13.2-21.9c2.7-8.7,0.4-18.2-6.2-24.8c-6.6-6.6-16.1-8.8-24.8-6.2
	c-4.2-8-12.6-13.2-21.9-13.2c-9.3,0-17.6,5.2-21.9,13.2c-8.7-2.7-18.2-0.4-24.8,6.2c-6.6,6.5-8.8,16.1-6.2,24.8
	c-8,4.2-13.2,12.6-13.2,21.9s5.2,17.6,13.2,21.9c-2.7,8.7-0.4,18.2,6.2,24.8c6.6,6.6,16.1,8.8,24.8,6.1c4.2,8,12.6,13.2,21.9,13.2
	c9.3,0,17.6-5.2,21.9-13.2c8.7,2.7,18.2,0.4,24.8-6.1c6.6-6.6,8.8-16.1,6.2-24.8C1127,510.7,1132.1,502.4,1132.1,493.2z
	 M1074.4,530.8h-16.2v-46.8h16.2V530.8z M1066.2,477.5c-5.2,0-9.7-4.3-9.7-9.7c0-5.4,4.5-9.6,9.7-9.6c5.4,0,9.7,4.2,9.7,9.6
	C1076,473.1,1071.6,477.5,1066.2,477.5z"/>
</svg>
