<?xml version="1.0" encoding="utf-8"?>
<!-- Generator: Adobe Illustrator 18.1.0, SVG Export Plug-In . SVG Version: 6.00 Build 0)  -->
<!DOCTYPE svg PUBLIC "-//W3C//DTD SVG 1.1//EN" "http://www.w3.org/Graphics/SVG/1.1/DTD/svg11.dtd">
<svg version="1.1" id="Layer_1" xmlns="http://www.w3.org/2000/svg" xmlns:xlink="http://www.w3.org/1999/xlink" x="0px" y="0px"
	 viewBox="36.1 477.5 960.1 84.2" enable-background="new 36.1 477.5 960.1 84.2" xml:space="preserve">
<g>
	<g>
		<path fill="#EC6C98" d="M877.2,477.5H152.4l41.4,42.1l-41.4,42.1h724.8l-41.4-42.1L877.2,477.5z M853.2,551.6H176.4l24.4-24.8
			l7-7.1l-7-7.1l-24.4-24.8h676.9l-24.4,24.8l-7,7.1l7,7.1L853.2,551.6z M51.4,504c-8.4,0-15.3,7-15.3,15.6
			c0,8.6,6.8,15.6,15.3,15.6c8.4,0,15.3-7,15.3-15.6C66.8,511,60,504,51.4,504z M98.2,504c-8.4,0-15.3,7-15.3,15.6
			c0,8.6,6.8,15.6,15.3,15.6c8.4,0,15.3-7,15.3-15.6C113.4,511,106.6,504,98.2,504z M160.2,519.6c0-8.6-6.8-15.6-15.3-15.6
			c-8.4,0-15.3,7-15.3,15.6c0,8.6,6.8,15.6,15.3,15.6C153.3,535.2,160.2,528.1,160.2,519.6z M887.5,504c-8.4,0-15.3,7-15.3,15.6
			c0,8.6,6.8,15.6,15.3,15.6c8.4,0,15.3-7,15.3-15.6C902.8,511,896,504,887.5,504z M934.2,504c-8.4,0-15.3,7-15.3,15.6
			c0,8.6,6.8,15.6,15.3,15.6c8.4,0,15.3-7,15.3-15.6C949.4,511,942.6,504,934.2,504z M980.9,504c-8.4,0-15.3,7-15.3,15.6
			c0,8.6,6.8,15.6,15.3,15.6s15.3-7,15.3-15.6C996.2,511,989.3,504,980.9,504z"/>
	</g>
</g>
</svg>
