<?xml version="1.0" encoding="UTF-8" standalone="no"?>
<!-- Generator: Adobe Illustrator 18.1.0, SVG Export Plug-In . SVG Version: 6.00 Build 0)  -->

<svg
   xmlns:dc="http://purl.org/dc/elements/1.1/"
   xmlns:cc="http://creativecommons.org/ns#"
   xmlns:rdf="http://www.w3.org/1999/02/22-rdf-syntax-ns#"
   xmlns:svg="http://www.w3.org/2000/svg"
   xmlns="http://www.w3.org/2000/svg"
   xmlns:sodipodi="http://sodipodi.sourceforge.net/DTD/sodipodi-0.dtd"
   xmlns:inkscape="http://www.inkscape.org/namespaces/inkscape"
   version="1.1"
   id="Layer_1"
   x="0px"
   y="0px"
   viewBox="0 0 22.8 40"
   enable-background="new 0 0 22.8 40"
   xml:space="preserve"
   inkscape:version="0.48.4 r9939"
   width="100%"
   height="100%"
   sodipodi:docname="scallop_left.svg"><metadata
     id="metadata9"><rdf:RDF><cc:Work
         rdf:about=""><dc:format>image/svg+xml</dc:format><dc:type
           rdf:resource="http://purl.org/dc/dcmitype/StillImage" /></cc:Work></rdf:RDF></metadata><defs
     id="defs7" /><sodipodi:namedview
     pagecolor="#ffffff"
     bordercolor="#666666"
     borderopacity="1"
     objecttolerance="10"
     gridtolerance="10"
     guidetolerance="10"
     inkscape:pageopacity="0"
     inkscape:pageshadow="2"
     inkscape:window-width="1328"
     inkscape:window-height="831"
     id="namedview5"
     showgrid="false"
     inkscape:zoom="5.9"
     inkscape:cx="-18.430508"
     inkscape:cy="20"
     inkscape:window-x="75"
     inkscape:window-y="34"
     inkscape:window-maximized="0"
     inkscape:current-layer="Layer_1" /><path
     fill="#1D1D1B"
     d="M0,0v3.5c2.6,0,4.7,2.1,4.7,4.7c0,2.6-2.1,4.7-4.7,4.7v2.4c2.6,0,4.7,2.1,4.7,4.7c0,2.6-2.1,4.7-4.7,4.7v2.4  c2.6,0,4.7,2.1,4.7,4.7c0,2.6-2.1,4.7-4.7,4.7V40h22.8V0H0z"
     id="path3"
     style="fill:#eb6d98;fill-opacity:1" /><path
     style="fill:#eb6d98;stroke:none;fill-opacity:0"
     d="m 0.14576271,38.20339 c 0,-1.660239 0.008052,-1.694915 0.3935358,-1.694915 1.31369509,0 3.08350659,-1.23797 3.75575179,-2.627119 0.5108021,-1.055537 0.5507109,-2.869887 0.086845,-3.948171 C 3.8732364,28.750775 2.6474658,27.627146 1.491856,27.283966 0.99732647,27.137107 0.49214798,27.016949 0.36923708,27.016949 c -0.16169384,0 -0.22347437,-0.299895 -0.22347437,-1.08479 l 0,-1.08479 0.88983049,-0.2121 C 3.1894307,24.12188 4.5275846,22.563669 4.6838359,20.38708 4.7839602,18.992344 4.4326014,17.842342 3.6142371,16.886266 2.9294432,16.086239 1.5084807,15.322034 0.70570436,15.322034 l -0.55994165,0 0,-1.164778 0,-1.164779 0.69351961,-0.110898 C 4.5485875,12.288437 6.0390315,7.5125647 3.3530639,4.8265971 2.6879298,4.1614631 1.2849887,3.4616741 0.61186441,3.4592829 l -0.4661017,-0.00166 0,-1.6949152 0,-1.69491529 11.27118629,0 11.271187,0 0,19.91525439 0,19.915254 -11.271187,0 -11.27118629,0 0,-1.694915 z"
     id="path3754"
     inkscape:connector-curvature="0" /><path
     style="fill:#eb6d98;fill-opacity:0"
     d="m 0.14576271,38.20339 c 0,-1.660239 0.008052,-1.694915 0.3935358,-1.694915 1.31369509,0 3.08350659,-1.23797 3.75575179,-2.627119 0.5108021,-1.055537 0.5507109,-2.869887 0.086845,-3.948171 C 3.8732364,28.750775 2.6474658,27.627146 1.491856,27.283966 0.99732647,27.137107 0.49214798,27.016949 0.36923708,27.016949 c -0.16169384,0 -0.22347437,-0.299895 -0.22347437,-1.08479 l 0,-1.08479 0.88983049,-0.2121 C 3.1894307,24.12188 4.5275846,22.563669 4.6838359,20.38708 4.7839602,18.992344 4.4326014,17.842342 3.6142371,16.886266 2.9294432,16.086239 1.5084807,15.322034 0.70570436,15.322034 l -0.55994165,0 0,-1.164778 0,-1.164779 0.69351961,-0.110898 C 4.5485875,12.288437 6.0390315,7.5125647 3.3530639,4.8265971 2.6879298,4.1614631 1.2849887,3.4616741 0.61186441,3.4592829 l -0.4661017,-0.00166 0,-1.6949152 0,-1.69491529 11.27118629,0 11.271187,0 0,19.91525439 0,19.915254 -11.271187,0 -11.27118629,0 0,-1.694915 z"
     id="path3756"
     inkscape:connector-curvature="0" /><path
     style="fill:#eb6d98;fill-opacity:0"
     d="m 0.14576271,38.20339 c 0,-1.660239 0.008052,-1.694915 0.3935358,-1.694915 1.31369509,0 3.08350659,-1.23797 3.75575179,-2.627119 0.5108021,-1.055537 0.5507109,-2.869887 0.086845,-3.948171 C 3.8732364,28.750775 2.6474658,27.627146 1.491856,27.283966 0.99732647,27.137107 0.49214798,27.016949 0.36923708,27.016949 c -0.16169384,0 -0.22347437,-0.299895 -0.22347437,-1.08479 l 0,-1.08479 0.88983049,-0.2121 C 3.1894307,24.12188 4.5275846,22.563669 4.6838359,20.38708 4.7839602,18.992344 4.4326014,17.842342 3.6142371,16.886266 2.9294432,16.086239 1.5084807,15.322034 0.70570436,15.322034 l -0.55994165,0 0,-1.164778 0,-1.164779 0.69351961,-0.110898 C 4.5485875,12.288437 6.0390315,7.5125647 3.3530639,4.8265971 2.6879298,4.1614631 1.2849887,3.4616741 0.61186441,3.4592829 l -0.4661017,-0.00166 0,-1.6949152 0,-1.69491529 11.27118629,0 11.271187,0 0,19.91525439 0,19.915254 -11.271187,0 -11.27118629,0 0,-1.694915 z"
     id="path3758"
     inkscape:connector-curvature="0" /><path
     style="fill:#eb6d98;fill-opacity:0"
     d="m 0.14576271,38.20339 c 0,-1.660239 0.008052,-1.694915 0.3935358,-1.694915 1.31369509,0 3.08350659,-1.23797 3.75575179,-2.627119 0.5108021,-1.055537 0.5507109,-2.869887 0.086845,-3.948171 C 3.8732364,28.750775 2.6474658,27.627146 1.491856,27.283966 0.99732647,27.137107 0.49214798,27.016949 0.36923708,27.016949 c -0.16169384,0 -0.22347437,-0.299895 -0.22347437,-1.08479 l 0,-1.08479 0.88983049,-0.2121 C 3.1894307,24.12188 4.5275846,22.563669 4.6838359,20.38708 4.7839602,18.992344 4.4326014,17.842342 3.6142371,16.886266 2.9294432,16.086239 1.5084807,15.322034 0.70570436,15.322034 l -0.55994165,0 0,-1.164778 0,-1.164779 0.69351961,-0.110898 C 4.5485875,12.288437 6.0390315,7.5125647 3.3530639,4.8265971 2.6879298,4.1614631 1.2849887,3.4616741 0.61186441,3.4592829 l -0.4661017,-0.00166 0,-1.6949152 0,-1.69491529 11.27118629,0 11.271187,0 0,19.91525439 0,19.915254 -11.271187,0 -11.27118629,0 0,-1.694915 z"
     id="path3760"
     inkscape:connector-curvature="0" /><path
     style="fill:#eb6d98;fill-opacity:0"
     d="m 0.14576271,38.20339 c 0,-1.660239 0.008052,-1.694915 0.3935358,-1.694915 1.31369509,0 3.08350659,-1.23797 3.75575179,-2.627119 0.5108021,-1.055537 0.5507109,-2.869887 0.086845,-3.948171 C 3.8732364,28.750775 2.6474658,27.627146 1.491856,27.283966 0.99732647,27.137107 0.49214798,27.016949 0.36923708,27.016949 c -0.16169384,0 -0.22347437,-0.299895 -0.22347437,-1.08479 l 0,-1.08479 0.88983049,-0.2121 C 3.1894307,24.12188 4.5275846,22.563669 4.6838359,20.38708 4.7839602,18.992344 4.4326014,17.842342 3.6142371,16.886266 2.9294432,16.086239 1.5084807,15.322034 0.70570436,15.322034 l -0.55994165,0 0,-1.164778 0,-1.164779 0.69351961,-0.110898 C 4.5485875,12.288437 6.0390315,7.5125647 3.3530639,4.8265971 2.6879298,4.1614631 1.2849887,3.4616741 0.61186441,3.4592829 l -0.4661017,-0.00166 0,-1.6949152 0,-1.69491529 11.27118629,0 11.271187,0 0,19.91525439 0,19.915254 -11.271187,0 -11.27118629,0 0,-1.694915 z"
     id="path3762"
     inkscape:connector-curvature="0" /><path
     style="fill:#eb6d98;fill-opacity:0"
     d="m 0.14576271,38.20339 c 0,-1.660239 0.008052,-1.694915 0.3935358,-1.694915 1.31369509,0 3.08350659,-1.23797 3.75575179,-2.627119 0.5108021,-1.055537 0.5507109,-2.869887 0.086845,-3.948171 C 3.8732364,28.750775 2.6474658,27.627146 1.491856,27.283966 0.99732647,27.137107 0.49214798,27.016949 0.36923708,27.016949 c -0.16169384,0 -0.22347437,-0.299895 -0.22347437,-1.08479 l 0,-1.08479 0.88983049,-0.2121 C 3.1894307,24.12188 4.5275846,22.563669 4.6838359,20.38708 4.7839602,18.992344 4.4326014,17.842342 3.6142371,16.886266 2.9294432,16.086239 1.5084807,15.322034 0.70570436,15.322034 l -0.55994165,0 0,-1.164778 0,-1.164779 0.69351961,-0.110898 C 4.5485875,12.288437 6.0390315,7.5125647 3.3530639,4.8265971 2.6879298,4.1614631 1.2849887,3.4616741 0.61186441,3.4592829 l -0.4661017,-0.00166 0,-1.6949152 0,-1.69491529 11.27118629,0 11.271187,0 0,19.91525439 0,19.915254 -11.271187,0 -11.27118629,0 0,-1.694915 z"
     id="path3764"
     inkscape:connector-curvature="0" /><path
     style="fill:#eb6d98;fill-opacity:0"
     d="m 0.14576271,38.20339 c 0,-1.660239 0.008052,-1.694915 0.3935358,-1.694915 1.31369509,0 3.08350659,-1.23797 3.75575179,-2.627119 0.5108021,-1.055537 0.5507109,-2.869887 0.086845,-3.948171 C 3.8732364,28.750775 2.6474658,27.627146 1.491856,27.283966 0.99732647,27.137107 0.49214798,27.016949 0.36923708,27.016949 c -0.16169384,0 -0.22347437,-0.299895 -0.22347437,-1.08479 l 0,-1.08479 0.88983049,-0.2121 C 3.1894307,24.12188 4.5275846,22.563669 4.6838359,20.38708 4.7839602,18.992344 4.4326014,17.842342 3.6142371,16.886266 2.9294432,16.086239 1.5084807,15.322034 0.70570436,15.322034 l -0.55994165,0 0,-1.164778 0,-1.164779 0.69351961,-0.110898 C 4.5485875,12.288437 6.0390315,7.5125647 3.3530639,4.8265971 2.6879298,4.1614631 1.2849887,3.4616741 0.61186441,3.4592829 l -0.4661017,-0.00166 0,-1.6949152 0,-1.69491529 11.27118629,0 11.271187,0 0,19.91525439 0,19.915254 -11.271187,0 -11.27118629,0 0,-1.694915 z"
     id="path3766"
     inkscape:connector-curvature="0" /><path
     style="fill:#eb6d98;fill-opacity:0"
     d="m 0.14576271,38.20339 c 0,-1.660239 0.008052,-1.694915 0.3935358,-1.694915 1.31369509,0 3.08350659,-1.23797 3.75575179,-2.627119 0.5108021,-1.055537 0.5507109,-2.869887 0.086845,-3.948171 C 3.8732364,28.750775 2.6474658,27.627146 1.491856,27.283966 0.99732647,27.137107 0.49214798,27.016949 0.36923708,27.016949 c -0.16169384,0 -0.22347437,-0.299895 -0.22347437,-1.08479 l 0,-1.08479 0.88983049,-0.2121 C 3.1894307,24.12188 4.5275846,22.563669 4.6838359,20.38708 4.7839602,18.992344 4.4326014,17.842342 3.6142371,16.886266 2.9294432,16.086239 1.5084807,15.322034 0.70570436,15.322034 l -0.55994165,0 0,-1.164778 0,-1.164779 0.69351961,-0.110898 C 4.5485875,12.288437 6.0390315,7.5125647 3.3530639,4.8265971 2.6879298,4.1614631 1.2849887,3.4616741 0.61186441,3.4592829 l -0.4661017,-0.00166 0,-1.6949152 0,-1.69491529 11.27118629,0 11.271187,0 0,19.91525439 0,19.915254 -11.271187,0 -11.27118629,0 0,-1.694915 z"
     id="path3768"
     inkscape:connector-curvature="0" /><path
     style="fill:#eb6d98;fill-opacity:0"
     d="m 0.14576271,38.20339 c 0,-1.660239 0.008052,-1.694915 0.3935358,-1.694915 1.31369509,0 3.08350659,-1.23797 3.75575179,-2.627119 0.5108021,-1.055537 0.5507109,-2.869887 0.086845,-3.948171 C 3.8732364,28.750775 2.6474658,27.627146 1.491856,27.283966 0.99732647,27.137107 0.49214798,27.016949 0.36923708,27.016949 c -0.16169384,0 -0.22347437,-0.299895 -0.22347437,-1.08479 l 0,-1.08479 0.88983049,-0.2121 C 3.1894307,24.12188 4.5275846,22.563669 4.6838359,20.38708 4.7839602,18.992344 4.4326014,17.842342 3.6142371,16.886266 2.9294432,16.086239 1.5084807,15.322034 0.70570436,15.322034 l -0.55994165,0 0,-1.164778 0,-1.164779 0.69351961,-0.110898 C 4.5485875,12.288437 6.0390315,7.5125647 3.3530639,4.8265971 2.6879298,4.1614631 1.2849887,3.4616741 0.61186441,3.4592829 l -0.4661017,-0.00166 0,-1.6949152 0,-1.69491529 11.27118629,0 11.271187,0 0,19.91525439 0,19.915254 -11.271187,0 -11.27118629,0 0,-1.694915 z"
     id="path3770"
     inkscape:connector-curvature="0" /><path
     style="fill:#eb6d98;fill-opacity:0"
     d="m 0.14576271,38.20339 c 0,-1.660239 0.008052,-1.694915 0.3935358,-1.694915 1.31369509,0 3.08350659,-1.23797 3.75575179,-2.627119 0.5108021,-1.055537 0.5507109,-2.869887 0.086845,-3.948171 C 3.8732364,28.750775 2.6474658,27.627146 1.491856,27.283966 0.99732647,27.137107 0.49214798,27.016949 0.36923708,27.016949 c -0.16169384,0 -0.22347437,-0.299895 -0.22347437,-1.08479 l 0,-1.08479 0.88983049,-0.2121 C 3.1894307,24.12188 4.5275846,22.563669 4.6838359,20.38708 4.7839602,18.992344 4.4326014,17.842342 3.6142371,16.886266 2.9294432,16.086239 1.5084807,15.322034 0.70570436,15.322034 l -0.55994165,0 0,-1.164778 0,-1.164779 0.69351961,-0.110898 C 4.5485875,12.288437 6.0390315,7.5125647 3.3530639,4.8265971 2.6879298,4.1614631 1.2849887,3.4616741 0.61186441,3.4592829 l -0.4661017,-0.00166 0,-1.6949152 0,-1.69491529 11.27118629,0 11.271187,0 0,19.91525439 0,19.915254 -11.271187,0 -11.27118629,0 0,-1.694915 z"
     id="path3772"
     inkscape:connector-curvature="0" /></svg>