<?xml version="1.0" encoding="utf-8"?>
<!-- Generator: Adobe Illustrator 18.1.0, SVG Export Plug-In . SVG Version: 6.00 Build 0)  -->
<!DOCTYPE svg PUBLIC "-//W3C//DTD SVG 1.1//EN" "http://www.w3.org/Graphics/SVG/1.1/DTD/svg11.dtd">
<svg version="1.1" id="Layer_1" xmlns="http://www.w3.org/2000/svg" xmlns:xlink="http://www.w3.org/1999/xlink" x="0px" y="0px"
	 viewBox="0 0 375 149.5" enable-background="new 0 0 375 149.5" xml:space="preserve">
<g>
	<g>
		<g>
			<g>
				<path d="M38.1,36.6v13.8h-4.2V29.8h3.7l11.6,13.9V29.8h4.2v20.6h-3.7L38.1,36.6z"/>
			</g>
			<g>
				<path d="M64.3,29.8h5l8,20.6h-4.3l-1.6-4.1H62l-1.6,4.1h-4.3L64.3,29.8z M63.1,43.1h7.2L66.8,34L63.1,43.1z"/>
			</g>
			<g>
				<path d="M86.1,34v16.3h-4.2V34h-6.8v-4.2h17.5V34H86.1z"/>
			</g>
			<g>
				<path d="M95.7,29.8h4.2v20.6h-4.2V29.8z"/>
			</g>
			<g>
				<path d="M113.7,29.5c6.1,0,10.6,4.5,10.6,10.6c0,6-4.5,10.6-10.6,10.6c-6,0-10.6-4.5-10.6-10.6C103.2,34,107.7,29.5,113.7,29.5z
					 M113.8,46.7c3.8,0,6.4-2.9,6.4-6.6c0-3.8-2.6-6.6-6.4-6.6c-3.7,0-6.4,2.8-6.4,6.6C107.4,43.8,110.1,46.7,113.8,46.7z"/>
			</g>
			<g>
				<path d="M131.8,36.6v13.8h-4.2V29.8h3.7l11.6,13.9V29.8h4.2v20.6h-3.7L131.8,36.6z"/>
			</g>
			<g>
				<path d="M158,29.8h5l8,20.6h-4.3l-1.6-4.1h-9.3l-1.6,4.1h-4.3L158,29.8z M156.8,43.1h7.2l-3.5-9.1L156.8,43.1z"/>
			</g>
			<g>
				<path d="M173.7,50.4V29.8h4.2v16.9h10.7v3.7H173.7z"/>
			</g>
			<g>
				<path d="M205,43.1v7.2h-4.1V29.8h15.7v3.7H205v5.9h10v3.7H205z"/>
			</g>
			<g>
				<path d="M219.9,50.4V29.8h16.3v3.7h-12.2V38h10v3.7h-10v5h12.2v3.7H219.9z"/>
			</g>
			<g>
				<path d="M243.9,41.3c-3.1-0.8-4.7-2.7-4.7-5.5c0-3.4,2.6-6.2,8.2-6.2c3,0,5.8,0.8,7.4,1.6l-1.2,4c-1.5-1-4.1-1.7-6.3-1.7
					c-2.6,0-3.7,0.8-3.7,2c0,1.1,0.8,1.6,2.2,2l3.8,1.1c3.7,1.1,5.5,2.8,5.5,5.7c0,3.9-3.4,6.5-8.4,6.5c-3,0-5.9-1-7.3-1.8l1-4
					c1.5,1,3.9,1.9,6.4,1.9c2.5,0,3.9-0.9,3.9-2.3c0-1.1-1.1-1.7-2.9-2.2L243.9,41.3z"/>
			</g>
			<g>
				<path d="M268.3,34v16.3h-4.2V34h-6.8v-4.2h17.5V34H268.3z"/>
			</g>
			<g>
				<path d="M277.8,29.8h4.2v20.6h-4.2V29.8z"/>
			</g>
			<g>
				<path d="M284.8,29.8h4.6l6,16.7l6.2-16.7h4.6l-8.2,20.6h-5.3L284.8,29.8z"/>
			</g>
			<g>
				<path d="M311.6,29.8h5l8,20.6h-4.3l-1.6-4.1h-9.3l-1.6,4.1h-4.3L311.6,29.8z M310.3,43.1h7.2L314,34L310.3,43.1z"/>
			</g>
			<g>
				<path d="M327.3,50.4V29.8h4.2v16.9h10.7v3.7H327.3z"/>
			</g>
		</g>
		<g>
			<g>
				<path d="M184.6,66.9c2.6,0,4.3,1.8,4.3,4.3c0,3.3-2.6,5.8-5.8,5.8c-2.5,0-4.3-1.7-4.3-4.3C178.8,69.3,181.4,66.9,184.6,66.9z
					 M183.2,75.2c2.1,0,3.8-1.7,3.8-3.8c0-1.5-1-2.7-2.6-2.7c-2.1,0-3.8,1.7-3.8,3.9C180.6,74,181.6,75.2,183.2,75.2z"/>
			</g>
			<g>
				<path d="M190.7,67.6h1.8l0.1-0.8c0.3-1.9,1.4-3.3,3.5-3.3c1,0,2,0.5,2.4,0.8l-0.7,1.5c-0.3-0.3-0.9-0.7-1.6-0.7
					c-1,0-1.5,0.7-1.7,1.6l-0.1,0.8h3.1l-0.3,1.5h-3.1l-1.9,11h-1.9l1.9-11h-1.8L190.7,67.6z"/>
			</g>
		</g>
		<g>
			<g>
				<path d="M148.5,1.7v8.9h-1.6V1.7h-3.8V0.1h9v1.6H148.5z"/>
			</g>
			<g>
				<path d="M163.2,6.1h-6.5v4.6H155V0.1h1.6v4.5h6.5V0.1h1.6v10.5h-1.6V6.1z"/>
			</g>
			<g>
				<path d="M169,10.7V0.1h8.2v1.4h-6.6v3h5.5v1.4h-5.5v3.3h6.6v1.4H169z"/>
			</g>
			<g>
				<path d="M186.7,6.6v4h-1.5V0.1h7.8v1.4h-6.3v3.6h5.5v1.4H186.7z"/>
			</g>
			<g>
				<path d="M196.1,0.1h1.6v10.5h-1.6V0.1z"/>
			</g>
			<g>
				<path d="M201.9,0.1h4.6c2,0,4,0.9,4,3.4c0,1.9-1.5,3.2-3.3,3.3c1,1.1,2.2,2.6,3.5,2.6c0.4,0,0.9-0.1,1.3-0.3l0.2,1.3
					c-0.4,0.2-1,0.4-1.7,0.4c-2.3,0-4-3.1-5.3-4h-1.6v3.9h-1.6V0.1z M203.5,1.5v4h3.1c1.2,0,2.1-0.7,2.1-2c0-1.3-0.9-2-2.1-2H203.5z
					"/>
			</g>
			<g>
				<path d="M216.9,5.7c-1.5-0.4-2.4-1.3-2.4-2.7c0-1.6,1.3-3.1,4.1-3.1c1.5,0,2.9,0.4,3.7,0.8l-0.5,1.5c-0.7-0.5-2.1-0.9-3.3-0.9
					c-1.7,0-2.4,0.7-2.4,1.5c0,0.7,0.5,1.1,1.4,1.3l2.1,0.6c1.9,0.5,2.8,1.3,2.8,2.8c0,1.9-1.7,3.2-4.2,3.2c-1.5,0-3-0.5-3.6-0.9
					l0.4-1.5c0.7,0.4,2,1,3.3,1c1.5,0,2.5-0.6,2.5-1.6c0-0.7-0.7-1.1-1.8-1.4L216.9,5.7z"/>
			</g>
			<g>
				<path d="M230.4,1.7v8.9h-1.6V1.7H225V0.1h9v1.6H230.4z"/>
			</g>
		</g>
		<g>
			<polygon points="30.2,103.6 0,103.6 22.9,126.5 0,149.5 50.2,149.5 50.2,139.6 30.2,139.6 			"/>
			<polygon points="375,103.6 345.7,103.6 345.7,139.6 324.8,139.6 324.8,149.5 375,149.5 352.1,126.5 			"/>
		</g>
	</g>
	<g>
		<g>
			<rect x="33.8" y="1.9" fill="#FFFFFF" width="100.9" height="1.8"/>
		</g>
		<g>
			<rect x="33.8" y="7" fill="#FFFFFF" width="100.9" height="1.8"/>
		</g>
		<g>
			<rect x="241.2" y="1.9" fill="#FFFFFF" width="100.9" height="1.8"/>
		</g>
		<g>
			<rect x="241.2" y="7" fill="#FFFFFF" width="100.9" height="1.8"/>
		</g>
		<g>
			<rect x="33.8" y="68.9" fill="#FFFFFF" width="135.9" height="1.8"/>
		</g>
		<g>
			<rect x="33.8" y="74" fill="#FFFFFF" width="135.9" height="1.8"/>
		</g>
		<g>
			<rect x="206.1" y="68.9" fill="#FFFFFF" width="135.9" height="1.8"/>
		</g>
		<g>
			<rect x="206.1" y="74" fill="#FFFFFF" width="135.9" height="1.8"/>
		</g>
		<path fill="#FFFFFF" d="M33.8,90.1V136h308.3V90.1H33.8z M65.5,126.6H45.6v-25.4h8.2v18.3h11.6V126.6z M92.7,123.3
			c-2.3,1.9-7.2,3.7-11.1,3.7C74,127,68,122.1,68,114c0-8.2,6-13.1,13.5-13.1c4.1,0,7.6,1.4,10.1,3.3l-3.7,6.2
			c-1.7-1.3-3.8-1.9-6.3-1.9c-3,0-5.2,2-5.2,5.6c0,3.5,2.2,5.5,5.6,5.5c0.9,0,2.2-0.2,3.4-0.6v-1.9h-5v-5.3h12.2V123.3z
			 M111.6,126.6H97.5v-25.4h12.4c5.9,0,9.3,2.2,9.3,7c0,2.3-1.2,4.1-3.2,5.1c3.3,0.9,5.2,2.8,5.2,6.2
			C121.1,124,117.7,126.6,111.6,126.6z M144.9,109.5h-6.7v17.2H130v-17.2h-6.7v-8.2h21.6V109.5z M184.3,126.6h-8.2v-9.3h-9v9.3h-8.2
			v-25.4h8.2v9h9v-9h8.2V126.6z M198.7,126.6h-8.2v-25.4h8.2V126.6z M213.6,127c-3.8,0-7.7-1.3-9.4-2.2l1.9-6.9
			c2.1,1.4,5.2,2.6,7.6,2.6c1.5,0,2.3-0.8,2.3-1.6c0-0.6-0.6-1.1-1.6-1.4l-4.6-1.3c-4.1-1.2-6-3.3-6-6.9c0-4.8,4-8.4,10.8-8.4
			c3.6,0,7.2,0.9,9.2,2l-2.3,6.8c-2.1-1.3-5-2.3-7.3-2.3c-1.5,0-2.2,0.6-2.2,1.4c0,0.6,0.3,0.9,1.4,1.2l4.1,1.3
			c4.8,1.5,6.8,3.7,6.8,7C224.3,123.4,220.4,127,213.6,127z M249.1,109.5h-6.7v17.2h-8.2v-17.2h-6.7v-8.2h21.6V109.5z M265.1,127
			c-7.4,0-13-5.6-13-13c0-7.5,5.6-13.1,13-13.1c7.5,0,13.1,5.6,13.1,13.1C278.2,121.4,272.6,127,265.1,127z M303.8,127
			c-5.7,0-9.8-6.2-13.3-8.8v8.5h-8.2v-25.4h13.8c4.8,0,9.1,3.1,9.1,8.5c0,3.6-2.3,6.2-5.7,7.2c2.1,1.6,3.9,2.9,5.7,2.9
			c0.7,0,1.7-0.1,2.3-0.3l0.7,6.4C307.2,126.5,305.6,127,303.8,127z M333.6,101.8l-9.2,15.5v9.3h-8.2v-9.3l-9.2-15.5v-0.6h9.1
			l4.1,8.5l4.1-8.5h9.1V101.8z M110.7,109c0-1-0.6-1.8-2.1-1.8h-3v3.6h3C110.1,110.8,110.7,110.1,110.7,109z M110.3,116.8h-4.6v3.8
			h4.6c1.5,0,2.1-0.8,2.1-1.9C112.5,117.7,111.8,116.8,110.3,116.8z M265.1,108.6c-2.9,0-5,2.3-5,5.4c0,2.9,2.1,5.3,5,5.3
			c3,0,5-2.4,5-5.3C270.1,110.9,268.1,108.6,265.1,108.6z M294.7,108.3h-4.2v3.9h4.2c1.4,0,2-1,2-1.9
			C296.7,109.4,296.1,108.3,294.7,108.3z"/>
	</g>
</g>
</svg>
