<?xml version="1.0" encoding="utf-8"?>
<!-- Generator: Adobe Illustrator 18.1.0, SVG Export Plug-In . SVG Version: 6.00 Build 0)  -->
<!DOCTYPE svg PUBLIC "-//W3C//DTD SVG 1.1//EN" "http://www.w3.org/Graphics/SVG/1.1/DTD/svg11.dtd">
<svg version="1.1" id="Layer_1" xmlns="http://www.w3.org/2000/svg" xmlns:xlink="http://www.w3.org/1999/xlink" x="0px" y="0px"
	 viewBox="0 0 279.1 46.3" enable-background="new 0 0 279.1 46.3" xml:space="preserve">
<g>
	<polygon fill="#FFFFFF" points="144.6,0 139.8,8.3 135,0 	"/>
	<g>
		<g>
			<path d="M84.9,44.8h-1.8v1.4h-0.7v-3.4h0.7v1.4h1.8v-1.4h0.7v3.4h-0.7V44.8z"/>
			<path d="M88.6,42.7c1,0,1.8,0.8,1.8,1.8c0,1-0.8,1.8-1.8,1.8c-1,0-1.8-0.8-1.8-1.8C86.8,43.5,87.6,42.7,88.6,42.7z M88.6,45.6
				c0.6,0,1.1-0.5,1.1-1.1c0-0.6-0.4-1.1-1.1-1.1c-0.6,0-1.1,0.5-1.1,1.1C87.5,45.1,88,45.6,88.6,45.6z"/>
			<path d="M92.1,44.7c-0.5-0.1-0.8-0.5-0.8-0.9c0-0.6,0.4-1,1.4-1c0.5,0,1,0.1,1.2,0.3l-0.2,0.7c-0.3-0.2-0.7-0.3-1.1-0.3
				c-0.4,0-0.6,0.1-0.6,0.3c0,0.2,0.1,0.3,0.4,0.3l0.6,0.2c0.6,0.2,0.9,0.5,0.9,1c0,0.6-0.6,1.1-1.4,1.1c-0.5,0-1-0.2-1.2-0.3
				l0.2-0.7c0.2,0.2,0.6,0.3,1.1,0.3s0.6-0.2,0.6-0.4c0-0.2-0.2-0.3-0.5-0.4L92.1,44.7z"/>
			<path d="M96.7,43.5v2.7H96v-2.7h-1.1v-0.7h2.9v0.7H96.7z"/>
			<path d="M98.8,46.2v-3.4h2.7v0.6h-2v0.7h1.7v0.6h-1.7v0.8h2v0.6H98.8z"/>
			<path d="M102.7,42.8h1.5c1,0,1.8,0.6,1.8,1.7c0,1.1-0.8,1.7-1.8,1.7h-1.5V42.8z M103.4,43.4v2.2h0.7c0.6,0,1.1-0.4,1.1-1.1
				c0-0.7-0.4-1.1-1.1-1.1H103.4z"/>
			<path d="M108.5,42.8h1.4c0.7,0,1.2,0.3,1.2,0.9c0,0.4-0.2,0.6-0.5,0.7c0.5,0.1,0.8,0.4,0.8,0.9c0,0.6-0.4,0.9-1.2,0.9h-1.7V42.8z
				 M109.9,44.1c0.4,0,0.6-0.1,0.6-0.4c0-0.3-0.2-0.4-0.6-0.4h-0.6v0.8H109.9z M110.1,45.6c0.4,0,0.6-0.1,0.6-0.4
				c0-0.3-0.2-0.4-0.6-0.4h-0.8v0.8H110.1z"/>
			<path d="M113.3,44.8l-1.3-2v-0.1h0.8l0.9,1.4l0.9-1.4h0.8v0.1l-1.3,2v1.4h-0.7V44.8z"/>
			<path d="M119.2,43.5v2.7h-0.7v-2.7h-1.1v-0.7h2.9v0.7H119.2z"/>
			<path d="M123.8,44.8H122v1.4h-0.7v-3.4h0.7v1.4h1.8v-1.4h0.7v3.4h-0.7V44.8z"/>
			<path d="M125.9,46.2v-3.4h2.7v0.6h-2v0.7h1.7v0.6h-1.7v0.8h2v0.6H125.9z"/>
			<path d="M134.2,45.7c-0.3,0.3-0.8,0.6-1.4,0.6c-1,0-1.8-0.7-1.8-1.8c0-1.1,0.8-1.8,1.8-1.8c0.9,0,1.4,0.5,1.4,1.3l-0.7,0.1
				c0-0.5-0.3-0.8-0.8-0.8c-0.6,0-1,0.4-1,1.1c0,0.7,0.4,1.1,1.1,1.1c0.4,0,0.8-0.2,1.1-0.4L134.2,45.7z"/>
			<path d="M135.4,42.8h0.7v3.4h-0.7V42.8z"/>
			<path d="M138.9,43.5v2.7h-0.7v-2.7h-1.1v-0.7h2.9v0.7H138.9z"/>
			<path d="M142.1,44.8l-1.3-2v-0.1h0.8l0.9,1.4l0.9-1.4h0.8v0.1l-1.3,2v1.4h-0.7V44.8z"/>
			<path d="M148,42.7c1,0,1.8,0.8,1.8,1.8c0,1-0.8,1.8-1.8,1.8c-1,0-1.8-0.8-1.8-1.8C146.3,43.5,147,42.7,148,42.7z M148,45.6
				c0.6,0,1.1-0.5,1.1-1.1c0-0.6-0.4-1.1-1.1-1.1c-0.6,0-1.1,0.5-1.1,1.1C147,45.1,147.4,45.6,148,45.6z"/>
			<path d="M151.7,45v1.2H151v-3.4h2.6v0.6h-1.9v1h1.7V45H151.7z"/>
			<path d="M159.2,43.9l-1.2,1.4h-0.1l-1.1-1.4v2.3h-0.7v-3.4h0.6l1.3,1.5l1.3-1.5h0.6v3.4h-0.7V43.9z"/>
			<path d="M162.3,42.8h0.8l1.3,3.4h-0.7l-0.3-0.7h-1.6l-0.3,0.7h-0.7L162.3,42.8z M162.1,45h1.2l-0.6-1.5L162.1,45z"/>
			<path d="M166.1,43.9v2.3h-0.7v-3.4h0.6l1.9,2.3v-2.3h0.7v3.4H168L166.1,43.9z"/>
			<path d="M173,45.7c-0.3,0.3-0.8,0.6-1.4,0.6c-1,0-1.8-0.7-1.8-1.8c0-1.1,0.8-1.8,1.8-1.8c0.9,0,1.4,0.5,1.4,1.3l-0.7,0.1
				c0-0.5-0.3-0.8-0.8-0.8c-0.6,0-1,0.4-1,1.1c0,0.7,0.4,1.1,1.1,1.1c0.4,0,0.8-0.2,1.1-0.4L173,45.7z"/>
			<path d="M176.8,44.8h-1.8v1.4h-0.7v-3.4h0.7v1.4h1.8v-1.4h0.7v3.4h-0.7V44.8z"/>
			<path d="M178.8,46.2v-3.4h2.7v0.6h-2v0.7h1.7v0.6h-1.7v0.8h2v0.6H178.8z"/>
			<path d="M183.4,44.7c-0.5-0.1-0.8-0.5-0.8-0.9c0-0.6,0.4-1,1.4-1c0.5,0,1,0.1,1.2,0.3l-0.2,0.7c-0.3-0.2-0.7-0.3-1.1-0.3
				c-0.4,0-0.6,0.1-0.6,0.3c0,0.2,0.1,0.3,0.4,0.3l0.6,0.2c0.6,0.2,0.9,0.5,0.9,1c0,0.6-0.6,1.1-1.4,1.1c-0.5,0-1-0.2-1.2-0.3
				l0.2-0.7c0.2,0.2,0.6,0.3,1.1,0.3s0.6-0.2,0.6-0.4c0-0.2-0.2-0.3-0.5-0.4L183.4,44.7z"/>
			<path d="M187.9,43.5v2.7h-0.7v-2.7h-1.1v-0.7h2.9v0.7H187.9z"/>
			<path d="M190,46.2v-3.4h2.7v0.6h-2v0.7h1.7v0.6h-1.7v0.8h2v0.6H190z"/>
			<path d="M194,42.8h1.5c0.7,0,1.4,0.3,1.4,1.1c0,0.6-0.4,1-1,1.1c0.3,0.3,0.7,0.7,1,0.7c0.1,0,0.3,0,0.4-0.1l0.1,0.6
				c-0.1,0.1-0.3,0.1-0.6,0.1c-0.8,0-1.3-1-1.8-1.3h-0.3v1.2H194V42.8z M194.7,43.4v1h0.9c0.3,0,0.6-0.2,0.6-0.5
				c0-0.3-0.2-0.5-0.6-0.5H194.7z"/>
		</g>
	</g>
	<g>
		<g>
			<path d="M1.3,21.3C0.5,21.1,0,20.6,0,19.8c0-0.9,0.7-1.7,2.3-1.7c0.8,0,1.6,0.2,2.1,0.5l-0.3,0.8c-0.4-0.3-1.2-0.5-1.8-0.5
				c-0.9,0-1.4,0.4-1.4,0.8c0,0.4,0.3,0.6,0.8,0.7l1.2,0.3c1,0.3,1.6,0.7,1.6,1.6c0,1.1-1,1.8-2.3,1.8c-0.8,0-1.7-0.3-2-0.5l0.2-0.9
				c0.4,0.2,1.1,0.5,1.8,0.5c0.9,0,1.4-0.4,1.4-0.9c0-0.4-0.4-0.6-1-0.8L1.3,21.3z"/>
			<path d="M8.9,19.1v5H8v-5H5.9v-0.9h5v0.9H8.9z"/>
			<path d="M14.3,18.2h1l1.9,5.1l2-5.1h1L17.7,24h-1.1L14.3,18.2z"/>
			<path d="M23,18.2h1l2.3,5.9h-0.9L25,22.7H22L21.5,24h-0.9L23,18.2z M22.3,22.1h2.5l-1.2-3L22.3,22.1z"/>
			<path d="M28,24v-5.9h0.9v5.1h3.2V24H28z"/>
			<path d="M33.8,24v-5.9h4.5V19h-3.7v1.6h3.1v0.8h-3.1v1.8h3.7V24H33.8z"/>
			<path d="M41.2,19.6V24h-0.9v-5.9H41l3.7,4.4v-4.4h0.9V24h-0.8L41.2,19.6z"/>
			<path d="M50.3,19.1v5h-0.9v-5h-2.1v-0.9h5v0.9H50.3z"/>
			<path d="M54,18.2h0.9V24H54V18.2z"/>
			<path d="M58.1,19.6V24h-0.9v-5.9H58l3.7,4.4v-4.4h0.9V24h-0.8L58.1,19.6z"/>
			<path d="M65,24v-5.9h4.5V19h-3.7v1.6h3.1v0.8h-3.1v1.8h3.7V24H65z"/>
			<path d="M71.6,19.3c-0.3-0.1-0.5-0.3-0.5-0.6c0-0.4,0.2-0.6,0.6-0.6c0.4,0,0.6,0.3,0.6,0.6c0,0.6-0.4,1.6-0.6,1.9l-0.5-0.2
				L71.6,19.3z"/>
			<path d="M75.5,21.3c-0.9-0.2-1.3-0.7-1.3-1.5c0-0.9,0.7-1.7,2.3-1.7c0.8,0,1.6,0.2,2.1,0.5l-0.3,0.8c-0.4-0.3-1.2-0.5-1.8-0.5
				c-0.9,0-1.4,0.4-1.4,0.8c0,0.4,0.3,0.6,0.8,0.7l1.2,0.3c1,0.3,1.6,0.7,1.6,1.6c0,1.1-1,1.8-2.3,1.8c-0.8,0-1.7-0.3-2-0.5l0.2-0.9
				c0.4,0.2,1.1,0.5,1.8,0.5c0.9,0,1.4-0.4,1.4-0.9c0-0.4-0.4-0.6-1-0.8L75.5,21.3z"/>
			<path d="M86.8,21.2L85.6,24h-1l-2.3-5.9h1l1.9,4.9l1.2-2.9l-0.8-2h1l1.8,4.7l1.9-4.7h1L88.9,24h-1L86.8,21.2z"/>
			<path d="M93,24v-5.9h4.5V19h-3.7v1.6h3.1v0.8h-3.1v1.8h3.7V24H93z"/>
			<path d="M99.5,24v-5.9h4.5V19h-3.7v1.6h3.1v0.8h-3.1v1.8h3.7V24H99.5z"/>
			<path d="M106,18.2h0.9v2.6h1.3l1.8-2.6h0.9v0.1l-2,2.8c0.5,0.5,1,2.2,1.9,2.2c0.2,0,0.5-0.1,0.7-0.2l0.1,0.7
				c-0.2,0.1-0.6,0.2-1,0.2c-1.4,0-2-2.1-2.5-2.6h-1.2V24H106V18.2z"/>
			<path d="M113.2,24v-5.9h4.5V19h-3.7v1.6h3.1v0.8h-3.1v1.8h3.7V24H113.2z"/>
			<path d="M120.6,19.6V24h-0.9v-5.9h0.8l3.7,4.4v-4.4h0.9V24h-0.8L120.6,19.6z"/>
			<path d="M127.5,18.2h2.4c1.7,0,3,1,3,2.9c0,1.9-1.3,2.9-3,2.9h-2.4V18.2z M128.4,19v4.3h1.4c1.2,0,2.1-0.8,2.1-2.1
				c0-1.4-0.9-2.1-2.1-2.2H128.4z"/>
			<path d="M139.1,18.2h0.7V24h-0.9v-4.8l-2,0.9l-0.3-0.7L139.1,18.2z"/>
			<path d="M145.7,22.8V24h-0.9v-1.2h-3.3v-0.6l3-4h1.1v3.9h1.1v0.8H145.7z M144.9,22.1v-3.1l-2.4,3.1H144.9z"/>
			<path d="M150.7,19.1v5h-0.9v-5h-2.1v-0.9h5v0.9H150.7z"/>
			<path d="M158.9,21.5h-3.6V24h-0.9v-5.9h0.9v2.5h3.6v-2.5h0.9V24h-0.9V21.5z"/>
			<path d="M169.9,24h-1.2l-0.6-0.5c-0.5,0.4-1.2,0.6-1.9,0.6c-1.2,0-2-0.6-2-1.7c0-0.8,0.6-1.2,1.3-1.5c-0.4-0.4-0.7-0.8-0.7-1.4
				c0-0.8,0.6-1.5,1.8-1.5c1.1,0,1.8,0.6,1.8,1.4c0,0.9-0.6,1.3-1.3,1.6l-0.2,0.1l1.3,1.2c0.4-0.4,0.7-1,0.9-1.6l0.7,0.5
				c-0.2,0.6-0.5,1.2-1,1.7l1.1,1V24z M167.6,22.9l-1.5-1.4c-0.5,0.2-1,0.4-1,0.9c0,0.6,0.5,0.9,1.2,0.9
				C166.8,23.3,167.2,23.2,167.6,22.9z M166.4,20.6l0.4-0.2c0.5-0.2,0.8-0.4,0.8-0.8c0-0.4-0.4-0.8-1-0.8c-0.6,0-0.9,0.3-0.9,0.7
				C165.7,20,166.1,20.3,166.4,20.6z"/>
			<path d="M175.9,18.2h0.7V24h-0.9v-4.8l-2,0.9l-0.3-0.7L175.9,18.2z"/>
			<path d="M182.8,19h-3l-0.1,1.5h0.9c1.5,0,2.4,0.5,2.4,1.6c0,1.4-1.1,2-2.5,2c-1,0-1.7-0.3-2-0.4l0.2-0.8c0.3,0.1,0.9,0.4,1.7,0.4
				c0.8,0,1.6-0.3,1.6-1.2c0-0.7-0.7-1-1.5-1h-1.7l0,0l0.2-3h3.7V19z"/>
			<path d="M187.4,19.1v5h-0.9v-5h-2.1v-0.9h5v0.9H187.4z"/>
			<path d="M195.6,21.5H192V24h-0.9v-5.9h0.9v2.5h3.6v-2.5h0.9V24h-0.9V21.5z"/>
			<path d="M202.2,21.8V24h-0.9v-5.9h4.4V19h-3.5v2h3.1v0.8H202.2z"/>
			<path d="M207.4,24v-5.9h4.5V19h-3.7v1.6h3.1v0.8h-3.1v1.8h3.7V24H207.4z"/>
			<path d="M213.9,18.2h2.3c1.2,0,2,0.5,2,1.5c0,0.6-0.4,1.1-1,1.3c0.9,0.2,1.4,0.6,1.4,1.5c0,0.9-0.7,1.6-2.1,1.6h-2.7V18.2z
				 M216,20.6c0.7,0,1.2-0.2,1.2-0.8c0-0.6-0.4-0.9-1.2-0.9h-1.2v1.7H216z M216.5,23.3c0.8,0,1.2-0.3,1.2-0.9c0-0.7-0.5-0.9-1.4-0.9
				h-1.5v1.8H216.5z"/>
			<path d="M220.6,18.2h2.5c1.1,0,2.2,0.5,2.2,1.9c0,1.1-0.8,1.8-1.8,1.8c0.6,0.6,1.2,1.5,2,1.5c0.2,0,0.5-0.1,0.7-0.2l0.1,0.7
				c-0.2,0.1-0.6,0.2-0.9,0.2c-1.3,0-2.3-1.7-2.9-2.2h-0.9V24h-0.9V18.2z M221.5,19v2.2h1.7c0.7,0,1.2-0.4,1.2-1.1
				c0-0.8-0.5-1.1-1.2-1.1H221.5z"/>
			<path d="M228.6,21.6c0,1.1,0.5,1.7,1.7,1.7c1.2,0,1.7-0.7,1.7-1.8v-3.4h0.9v3.4c0,1.4-0.9,2.5-2.6,2.5c-1.7,0-2.6-1.1-2.6-2.5
				v-3.4h0.9V21.6z"/>
			<path d="M236.6,18.2h1l2.3,5.9H239l-0.5-1.3h-2.9l-0.5,1.3h-0.9L236.6,18.2z M235.8,22.1h2.5l-1.2-3L235.8,22.1z"/>
			<path d="M241.6,18.2h2.5c1.1,0,2.2,0.5,2.2,1.9c0,1.1-0.8,1.8-1.8,1.8c0.6,0.6,1.2,1.5,2,1.5c0.2,0,0.5-0.1,0.7-0.2l0.1,0.7
				c-0.2,0.1-0.6,0.2-0.9,0.2c-1.3,0-2.3-1.7-2.9-2.2h-0.9V24h-0.9V18.2z M242.5,19v2.2h1.7c0.7,0,1.2-0.4,1.2-1.1
				c0-0.8-0.5-1.1-1.2-1.1H242.5z"/>
			<path d="M250,21.6l-2.4-3.4v-0.1h1l1.8,2.6l1.8-2.6h1v0.1l-2.4,3.4V24H250V21.6z"/>
			<path d="M261.4,24H257v-0.7l2.4-1.8c0.7-0.5,0.9-0.9,0.9-1.5c0-0.6-0.4-1.1-1.2-1.1c-0.9,0-1.4,0.6-1.4,1.4l-0.8-0.1
				c0-1.2,0.8-2,2.2-2c1.4,0,2.1,0.9,2.1,1.9c0,0.8-0.2,1.4-1.2,2.1l-1.7,1.2h3V24z"/>
			<path d="M265.6,18.1c1.7,0,2.5,1.2,2.5,3c0,1.8-0.8,3-2.5,3c-1.7,0-2.5-1.2-2.5-3C263.1,19.3,263.9,18.1,265.6,18.1z M265.6,23.3
				c1.2,0,1.7-1,1.7-2.2c0-1.2-0.4-2.2-1.7-2.2c-1.2,0-1.6,1-1.6,2.2C263.9,22.3,264.4,23.3,265.6,23.3z"/>
			<path d="M272,18.2h0.7V24h-0.9v-4.8l-2,0.9l-0.3-0.7L272,18.2z"/>
			<path d="M278.9,19h-3l-0.1,1.5h0.9c1.5,0,2.4,0.5,2.4,1.6c0,1.4-1.1,2-2.5,2c-1,0-1.7-0.3-2-0.4l0.2-0.8c0.3,0.1,0.9,0.4,1.7,0.4
				c0.8,0,1.6-0.3,1.6-1.2c0-0.7-0.7-1-1.5-1h-1.7l0,0l0.2-3h3.7V19z"/>
		</g>
	</g>
	<line fill="none" stroke="#FFFFFF" stroke-miterlimit="10" x1="125.4" y1="32.7" x2="154.1" y2="32.7"/>
	<line fill="none" stroke="#FFFFFF" stroke-miterlimit="10" x1="125.4" y1="35.6" x2="154.1" y2="35.6"/>
</g>
</svg>
