<?xml version="1.0" encoding="utf-8"?>
<!-- Generator: Adobe Illustrator 18.0.0, SVG Export Plug-In . SVG Version: 6.00 Build 0)  -->
<!DOCTYPE svg PUBLIC "-//W3C//DTD SVG 1.1//EN" "http://www.w3.org/Graphics/SVG/1.1/DTD/svg11.dtd">
<svg version="1.1" id="Layer_1" xmlns="http://www.w3.org/2000/svg" xmlns:xlink="http://www.w3.org/1999/xlink" x="0px" y="0px"
	 viewBox="0 0 841.9 595.3" enable-background="new 0 0 841.9 595.3" xml:space="preserve">
<rect fill="#EC6D9A" width="841.9" height="595.3"/>
<g>
	<g>
		<g>
			<g>
				<path d="M207.9,243.2v19.7h-6v-29.3h5.3l16.5,19.8v-19.8h6v29.3h-5.3L207.9,243.2z"/>
			</g>
			<g>
				<path d="M245.2,233.6h7.1l11.3,29.3h-6.1l-2.2-5.9H242l-2.3,5.9h-6.1L245.2,233.6z M243.5,252.6h10.3l-5-13L243.5,252.6z"/>
			</g>
			<g>
				<path d="M276.4,239.6v23.3h-6v-23.3h-9.7v-6h25v6H276.4z"/>
			</g>
			<g>
				<path d="M290,233.6h6v29.3h-6V233.6z"/>
			</g>
			<g>
				<path d="M315.8,233.2c8.7,0,15.1,6.5,15.1,15.1c0,8.6-6.5,15-15.1,15c-8.6,0-15-6.5-15-15C300.7,239.6,307.2,233.2,315.8,233.2z
					 M315.8,257.7c5.4,0,9.1-4.1,9.1-9.4c0-5.4-3.8-9.4-9.1-9.4c-5.3,0-9.1,4-9.1,9.4C306.7,253.6,310.5,257.7,315.8,257.7z"/>
			</g>
			<g>
				<path d="M341.5,243.2v19.7h-6v-29.3h5.3l16.5,19.8v-19.8h6v29.3H358L341.5,243.2z"/>
			</g>
			<g>
				<path d="M378.9,233.6h7.1l11.3,29.3h-6.1l-2.2-5.9h-13.3l-2.3,5.9h-6.1L378.9,233.6z M377.1,252.6h10.3l-5-13L377.1,252.6z"/>
			</g>
			<g>
				<path d="M401.3,262.9v-29.3h6v24.1h15.2v5.3H401.3z"/>
			</g>
			<g>
				<path d="M445.9,252.6v10.3h-5.8v-29.3h22.3v5.3h-16.6v8.4h14.2v5.3H445.9z"/>
			</g>
			<g>
				<path d="M467.1,262.9v-29.3h23.2v5.3h-17.4v6.3h14.3v5.3h-14.3v7.1h17.4v5.3H467.1z"/>
			</g>
			<g>
				<path d="M501.3,249.9c-4.4-1.2-6.7-3.9-6.7-7.8c0-4.9,3.7-8.9,11.7-8.9c4.2,0,8.3,1.1,10.5,2.3l-1.7,5.6c-2.2-1.4-5.8-2.5-9-2.5
					c-3.7,0-5.3,1.2-5.3,2.8c0,1.6,1.1,2.2,3.2,2.8l5.4,1.6c5.3,1.5,7.9,3.9,7.9,8.1c0,5.5-4.9,9.3-11.9,9.3
					c-4.3,0-8.5-1.5-10.4-2.5l1.4-5.7c2.1,1.4,5.5,2.8,9.1,2.8s5.5-1.3,5.5-3.3c0-1.6-1.6-2.4-4.2-3.1L501.3,249.9z"/>
			</g>
			<g>
				<path d="M536.2,239.6v23.3h-6v-23.3h-9.7v-6h25v6H536.2z"/>
			</g>
			<g>
				<path d="M549.7,233.6h6v29.3h-6V233.6z"/>
			</g>
			<g>
				<path d="M559.7,233.6h6.6l8.5,23.8l8.8-23.8h6.6l-11.6,29.3H571L559.7,233.6z"/>
			</g>
			<g>
				<path d="M597.9,233.6h7.1l11.3,29.3h-6.1l-2.2-5.9h-13.3l-2.3,5.9h-6.1L597.9,233.6z M596.1,252.6h10.3l-5-13L596.1,252.6z"/>
			</g>
			<g>
				<path d="M620.3,262.9v-29.3h6v24.1h15.2v5.3H620.3z"/>
			</g>
		</g>
		<g>
			<g>
				<path d="M416.8,286.4c3.7,0,6.1,2.5,6.1,6.1c0,4.8-3.7,8.3-8.3,8.3c-3.6,0-6.1-2.5-6.1-6.1C408.5,290,412.2,286.4,416.8,286.4z
					 M414.9,298.3c3,0,5.4-2.4,5.4-5.5c0-2.2-1.4-3.9-3.7-3.9c-3,0-5.4,2.4-5.4,5.5C411.2,296.6,412.6,298.3,414.9,298.3z"/>
			</g>
			<g>
				<path d="M425.5,287.5h2.6l0.2-1.1c0.4-2.6,1.9-4.8,5-4.8c1.5,0,2.8,0.7,3.4,1.2l-1,2.2c-0.4-0.4-1.2-1-2.3-1
					c-1.4,0-2.1,0.9-2.4,2.4l-0.2,1.1h4.4l-0.4,2.2h-4.4l-2.8,15.7H425l2.8-15.7h-2.6L425.5,287.5z"/>
			</g>
		</g>
		<g>
			<g>
				<path d="M365.3,193.6v12.7H363v-12.7h-5.4v-2.3h12.8v2.3H365.3z"/>
			</g>
			<g>
				<path d="M386.2,199.7h-9.3v6.6h-2.3v-15h2.3v6.4h9.3v-6.4h2.3v15h-2.3V199.7z"/>
			</g>
			<g>
				<path d="M394.5,206.3v-15h11.6v2h-9.4v4.2h7.8v2h-7.8v4.7h9.4v2H394.5z"/>
			</g>
			<g>
				<path d="M419.8,200.5v5.8h-2.2v-15h11.2v2h-9v5.2h7.8v2H419.8z"/>
			</g>
			<g>
				<path d="M433.3,191.3h2.3v15h-2.3V191.3z"/>
			</g>
			<g>
				<path d="M441.5,191.3h6.5c2.8,0,5.6,1.3,5.6,4.8c0,2.7-2.1,4.5-4.7,4.7c1.5,1.5,3.2,3.7,5,3.7c0.6,0,1.3-0.2,1.8-0.4l0.2,1.9
					c-0.6,0.3-1.5,0.6-2.4,0.6c-3.3,0-5.8-4.5-7.5-5.7h-2.3v5.5h-2.3V191.3z M443.8,193.3v5.6h4.5c1.7,0,3-1,3-2.8
					c0-1.9-1.3-2.8-3-2.8H443.8z"/>
			</g>
			<g>
				<path d="M462.8,199.3c-2.2-0.6-3.4-1.9-3.4-3.8c0-2.3,1.9-4.4,5.9-4.4c2.1,0,4.1,0.6,5.3,1.2l-0.7,2.2c-1.1-0.7-3-1.2-4.7-1.2
					c-2.4,0-3.5,0.9-3.5,2.1c0,1,0.7,1.5,2,1.9l3,0.8c2.6,0.7,4.1,1.9,4.1,4c0,2.8-2.4,4.6-6,4.6c-2.2,0-4.2-0.7-5.2-1.3l0.6-2.2
					c1,0.6,2.8,1.4,4.7,1.4c2.2,0,3.6-0.9,3.6-2.3c0-1.1-0.9-1.6-2.6-2.1L462.8,199.3z"/>
			</g>
			<g>
				<path d="M482.1,193.6v12.7h-2.3v-12.7h-5.4v-2.3h12.8v2.3H482.1z"/>
			</g>
		</g>
		<g>
			<polygon points="196.6,338.8 153.6,338.8 186.3,371.5 153.6,404.2 225.1,404.2 225.1,390.1 196.6,390.1 			"/>
			<polygon points="688.3,338.8 646.6,338.8 646.6,390.1 616.8,390.1 616.8,404.2 688.3,404.2 655.6,371.5 			"/>
		</g>
	</g>
	<g>
		<g>
			<rect x="201.8" y="193.8" fill="#FFFFFF" width="143.9" height="2.6"/>
		</g>
		<g>
			<rect x="201.8" y="201.1" fill="#FFFFFF" width="143.9" height="2.6"/>
		</g>
		<g>
			<rect x="497.5" y="193.8" fill="#FFFFFF" width="143.9" height="2.6"/>
		</g>
		<g>
			<rect x="497.5" y="201.1" fill="#FFFFFF" width="143.9" height="2.6"/>
		</g>
		<g>
			<rect x="201.8" y="289.4" fill="#FFFFFF" width="193.9" height="2.6"/>
		</g>
		<g>
			<rect x="201.8" y="296.6" fill="#FFFFFF" width="193.9" height="2.6"/>
		</g>
		<g>
			<rect x="447.5" y="289.4" fill="#FFFFFF" width="193.9" height="2.6"/>
		</g>
		<g>
			<rect x="447.5" y="296.6" fill="#FFFFFF" width="193.9" height="2.6"/>
		</g>
		<path fill="#FFFFFF" d="M201.8,319.6V385h439.7v-65.4H201.8z M246.9,371.6h-28.3v-36.2h11.7v26.1h16.6V371.6z M285.7,366.9
			c-3.4,2.8-10.3,5.3-15.9,5.3c-10.7,0-19.3-6.9-19.3-18.6c0-11.8,8.6-18.7,19.3-18.7c5.9,0,10.9,2,14.5,4.7l-5.3,8.8
			c-2.4-1.8-5.5-2.8-8.9-2.8c-4.3,0-7.4,2.8-7.4,7.9c0,5,3.1,7.8,8,7.8c1.3,0,3.1-0.3,4.8-0.9v-2.8h-7.1v-7.6h17.4V366.9z
			 M312.7,371.6h-20.1v-36.2h17.7c8.5,0,13.2,3.1,13.2,9.9c0,3.4-1.6,5.9-4.5,7.3c4.7,1.2,7.4,4,7.4,8.9
			C326.3,367.9,321.4,371.6,312.7,371.6z M360.2,347.2h-9.6v24.5H339v-24.5h-9.6v-11.7h30.9V347.2z M416.4,371.6h-11.7v-13.3h-12.8
			v13.3h-11.7v-36.2h11.7v12.8h12.8v-12.8h11.7V371.6z M437,371.6h-11.7v-36.2H437V371.6z M458.2,372.2c-5.5,0-11-1.8-13.4-3.1
			l2.7-9.9c3,2,7.4,3.7,10.9,3.7c2.2,0,3.2-1.1,3.2-2.3c0-0.9-0.9-1.5-2.3-2l-6.5-1.8c-5.9-1.8-8.5-4.7-8.5-9.9
			c0-6.8,5.7-11.9,15.4-11.9c5.1,0,10.3,1.3,13.2,2.9l-3.2,9.7c-2.9-1.9-7.1-3.3-10.5-3.3c-2.1,0-3.2,0.8-3.2,2c0,0.8,0.5,1.2,2,1.7
			l5.9,1.9c6.9,2.2,9.6,5.3,9.6,10.1C473.4,367,467.8,372.2,458.2,372.2z M508.8,347.2h-9.6v24.5h-11.7v-24.5h-9.6v-11.7h30.9V347.2
			z M531.6,372.2c-10.6,0-18.6-8-18.6-18.6c0-10.7,8-18.7,18.6-18.7c10.7,0,18.7,8,18.7,18.7C550.3,364.2,542.3,372.2,531.6,372.2z
			 M586.8,372.2c-8.1,0-14-8.8-18.9-12.6v12.1h-11.7v-36.2h19.6c6.8,0,12.9,4.5,12.9,12.2c0,5.1-3.3,8.9-8.1,10.3
			c2.9,2.3,5.5,4.2,8.1,4.2c1,0,2.4-0.1,3.4-0.4l1.1,9.1C591.6,371.5,589.3,372.2,586.8,372.2z M629.3,336.3l-13.1,22.1v13.3h-11.7
			v-13.2l-13.1-22.1v-0.8h13l5.9,12.2l5.9-12.2h13V336.3z M311.5,346.5c0-1.4-0.9-2.6-2.9-2.6h-4.3v5.2h4.3
			C310.6,349.1,311.5,348,311.5,346.5z M310.9,357.6h-6.6v5.4h6.6c2.1,0,3-1.2,3-2.7C313.9,358.9,313,357.6,310.9,357.6z
			 M531.6,345.9c-4.2,0-7.2,3.4-7.2,7.7c0,4.2,3,7.6,7.2,7.6c4.3,0,7.2-3.4,7.2-7.6C538.8,349.3,535.9,345.9,531.6,345.9z
			 M573.8,345.6h-6v5.5h6c2,0,2.9-1.4,2.9-2.8C576.7,347.1,575.8,345.6,573.8,345.6z"/>
	</g>
</g>
</svg>
